<svg width="2128" height="296" viewBox="0 0 2128 296" fill="none" xmlns="http://www.w3.org/2000/svg">
<path d="M204.108 187.29L126.038 265.36C123.528 267.87 123.528 271.95 126.038 274.46L145.488 293.91C147.998 296.42 152.078 296.42 154.588 293.91L256.658 191.84C259.168 189.33 259.168 185.25 256.658 182.74L179.208 105.29C176.698 102.78 172.618 102.78 170.108 105.29L150.658 124.74C148.148 127.25 148.148 131.33 150.658 133.84L204.118 187.3L204.108 187.29Z" fill="#1E483A"/>
<mask id="mask0_256_671" style="mask-type:luminance" maskUnits="userSpaceOnUse" x="124" y="103" width="135" height="193">
<path d="M204.108 187.29L126.038 265.36C123.528 267.87 123.528 271.95 126.038 274.46L145.488 293.91C147.998 296.42 152.078 296.42 154.588 293.91L256.658 191.84C259.168 189.33 259.168 185.25 256.658 182.74L179.208 105.29C176.698 102.78 172.618 102.78 170.108 105.29L150.658 124.74C148.148 127.25 148.148 131.33 150.658 133.84L204.118 187.3L204.108 187.29Z" fill="white"/>
</mask>
<g mask="url(#mask0_256_671)">
<path d="M150.288 277.93C216.23 277.93 269.688 224.473 269.688 158.53C269.688 92.5871 216.23 39.1299 150.288 39.1299C84.3448 39.1299 30.8876 92.5871 30.8876 158.53C30.8876 224.473 84.3448 277.93 150.288 277.93Z" fill="#4C4D2C"/>
<path d="M150.288 250.37C201.009 250.37 242.128 209.252 242.128 158.53C242.128 107.808 201.009 66.6899 150.288 66.6899C99.5658 66.6899 58.4476 107.808 58.4476 158.53C58.4476 209.252 99.5658 250.37 150.288 250.37Z" fill="#6A4F23"/>
<path d="M150.288 231.51C190.593 231.51 223.268 198.836 223.268 158.53C223.268 118.224 190.593 85.5498 150.288 85.5498C109.982 85.5498 77.3076 118.224 77.3076 158.53C77.3076 198.836 109.982 231.51 150.288 231.51Z" fill="#7D5023"/>
<path d="M150.288 213.15C180.453 213.15 204.908 188.696 204.908 158.53C204.908 128.364 180.453 103.91 150.288 103.91C120.122 103.91 95.6676 128.364 95.6676 158.53C95.6676 188.696 120.122 213.15 150.288 213.15Z" fill="#865223"/>
</g>
<path d="M111.408 108.48L189.448 30.4399C191.978 27.9099 191.978 23.8099 189.448 21.2899L170.057 1.89994C167.527 -0.630059 163.428 -0.630059 160.908 1.89994L58.8975 103.91C56.3675 106.44 56.3675 110.54 58.8975 113.06L136.298 190.46C138.828 192.99 142.927 192.99 145.447 190.46L164.837 171.07C167.367 168.54 167.367 164.44 164.837 161.92L111.408 108.49V108.48Z" fill="#CF9844"/>
<mask id="mask1_256_671" style="mask-type:luminance" maskUnits="userSpaceOnUse" x="57" y="0" width="135" height="193">
<path d="M111.408 108.48L189.448 30.4399C191.978 27.9099 191.978 23.8099 189.448 21.2899L170.057 1.89994C167.527 -0.630059 163.428 -0.630059 160.908 1.89994L58.8975 103.91C56.3675 106.44 56.3675 110.54 58.8975 113.06L136.298 190.46C138.828 192.99 142.927 192.99 145.447 190.46L164.837 171.07C167.367 168.54 167.367 164.44 164.837 161.92L111.408 108.49V108.48Z" fill="white"/>
</mask>
<g mask="url(#mask1_256_671)">
<path d="M165.478 256.89C231.42 256.89 284.878 203.433 284.878 137.49C284.878 71.5471 231.42 18.0898 165.478 18.0898C99.5347 18.0898 46.0775 71.5471 46.0775 137.49C46.0775 203.433 99.5347 256.89 165.478 256.89Z" fill="#BE8032"/>
<path d="M165.477 229.33C216.199 229.33 257.317 188.212 257.317 137.49C257.317 86.7681 216.199 45.6499 165.477 45.6499C114.756 45.6499 73.6375 86.7681 73.6375 137.49C73.6375 188.212 114.756 229.33 165.477 229.33Z" fill="#B56F28"/>
<path d="M165.478 210.47C205.783 210.47 238.458 177.796 238.458 137.49C238.458 97.184 205.783 64.5098 165.478 64.5098C125.172 64.5098 92.4976 97.184 92.4976 137.49C92.4976 177.796 125.172 210.47 165.478 210.47Z" fill="#AB6522"/>
<path d="M165.478 192.11C195.643 192.11 220.098 167.656 220.098 137.49C220.098 107.324 195.643 82.8699 165.478 82.8699C135.312 82.8699 110.858 107.324 110.858 137.49C110.858 167.656 135.312 192.11 165.478 192.11Z" fill="#A95F23"/>
</g>
<path d="M1008.67 186.306C1008.67 195.594 1006.46 203.702 1002.09 210.707C997.724 217.674 991.82 223.341 984.461 227.67C977.691 231.645 969.938 234.637 961.201 236.644C952.463 238.69 942.782 239.674 932.116 239.674C926.33 239.674 920.387 239.477 914.208 239.123C908.029 238.769 904.448 238.533 903.464 238.454L902.401 219.012C903.661 219.209 907.164 219.523 912.949 220.035C918.695 220.547 925.504 220.783 933.336 220.783C938.098 220.783 944.277 220.153 951.834 218.894C959.39 217.634 965.215 216.021 969.269 214.013C974.582 211.416 978.636 208.267 981.509 204.568C984.343 200.868 985.759 196.185 985.759 190.517C985.759 184.496 984.343 179.379 981.509 175.207C978.675 171.036 973.952 166.982 967.38 163.125C963.129 160.606 957.659 157.772 950.889 154.624C944.12 151.475 938.059 148.248 932.667 144.902C923.497 139.314 916.924 133.213 913.028 126.602C909.092 119.99 907.164 112.63 907.164 104.522C907.164 96.4148 908.935 89.055 912.516 82.994C916.098 76.933 920.702 71.6986 926.37 67.4087C932.155 63.0794 939.2 59.8521 947.544 57.6875C955.887 55.5229 965.136 54.4602 975.33 54.4602C980.918 54.4602 986.586 54.6176 992.293 54.9325C997.999 55.2473 1001.31 55.4441 1002.09 55.5228L1003.98 75.1226C1003.16 75.0439 999.889 74.7291 994.103 74.1781C988.357 73.6271 981.233 73.3515 972.772 73.3515C967.734 73.3515 962.539 73.9025 957.186 75.0438C951.834 76.1852 947.111 77.9169 943.057 80.239C939.436 82.3249 936.406 85.198 933.887 88.8976C931.368 92.5971 930.109 96.9264 930.109 101.846C930.109 106.254 931.447 110.505 934.084 114.598C936.721 118.691 941.719 122.902 949 127.231C952.7 129.475 957.58 132.072 963.641 134.985C969.702 137.897 975.684 141.085 981.548 144.509C990.561 149.822 997.33 155.923 1001.86 162.81C1006.38 169.697 1008.67 177.569 1008.67 186.385V186.306Z" fill="#1E483A"/>
<path d="M1210.45 237.234H1188.17C1188.25 231.842 1188.37 221.845 1188.53 207.323C1188.64 192.8 1188.72 174.656 1188.72 152.971C1187.39 152.971 1179.36 152.971 1164.68 152.892C1150 152.853 1138.98 152.813 1131.58 152.813C1122.64 152.813 1111.98 152.813 1099.5 152.892C1087.03 152.931 1080.26 152.971 1079.19 152.971C1079.19 178.002 1079.27 196.972 1079.39 209.842C1079.51 222.711 1079.63 231.842 1079.74 237.234H1057.47C1057.55 231.842 1057.7 222.239 1057.86 208.464C1058.02 194.689 1058.14 171.429 1058.14 138.645C1058.14 128.727 1058.06 116.684 1057.94 102.436C1057.82 88.2285 1057.66 72.8399 1057.47 56.3887H1079.74C1079.74 70.0849 1079.67 83.5056 1079.47 96.6902C1079.27 109.875 1079.19 122.43 1079.19 134.316C1080.26 134.316 1086.16 134.316 1096.82 134.394C1107.49 134.473 1119.14 134.473 1131.73 134.473C1141.46 134.473 1153.14 134.473 1166.84 134.394C1180.54 134.355 1187.82 134.316 1188.72 134.316C1188.72 122.43 1188.64 109.914 1188.45 96.769C1188.29 83.6237 1188.17 70.1636 1188.17 56.3887H1210.45C1210.25 70.0062 1210.09 85.7097 1209.98 103.538C1209.82 121.367 1209.78 135.89 1209.78 147.146C1209.78 173.633 1209.86 193.902 1210.05 207.992C1210.25 222.082 1210.37 231.842 1210.45 237.234Z" fill="#1E483A"/>
<path d="M1423.68 229.992L1402.67 240.855C1402.31 239.871 1399.4 233.141 1394.01 220.743C1388.62 208.307 1381.49 192.328 1372.64 172.807H1292.67C1283.18 193.784 1275.86 210.038 1270.7 221.57C1265.55 233.101 1262.71 239.517 1262.16 240.894L1244.06 231.094C1246.38 226.411 1256.06 205.788 1273.03 169.186C1289.99 132.584 1307.62 94.1319 1325.92 53.8303H1343.48C1361.5 94.1712 1379.17 133.213 1396.57 171.035C1413.96 208.857 1422.98 228.497 1423.72 230.032L1423.68 229.992ZM1365 155.529C1360.24 144.548 1355.2 133.056 1349.89 121.052C1344.58 109.048 1339.03 96.5327 1333.2 83.4661L1332.65 83.5842C1328.13 93.4628 1322.66 105.663 1316.28 120.068C1309.9 134.512 1304.59 146.319 1300.42 155.489L1300.34 155.647H1365.04V155.489L1365 155.529Z" fill="#1E483A"/>
<path d="M1596.26 226.411L1579.38 240.304C1577.41 238.218 1570.37 230.425 1558.32 216.847C1546.28 203.269 1527.71 182.134 1502.6 153.404L1502.71 152.184C1506.14 151.278 1510.7 149.31 1516.37 146.319C1522.04 143.289 1526.84 140.022 1530.7 136.52C1534.04 133.45 1536.91 129.671 1539.39 125.185C1541.87 120.659 1543.09 114.637 1543.09 107.08C1543.09 100.154 1541.28 94.1714 1537.62 89.1731C1533.96 84.1747 1528.96 80.5144 1522.55 78.153C1517.31 76.1852 1511.84 74.9651 1506.06 74.5715C1500.31 74.178 1495 73.9812 1490.12 73.9812C1486.89 73.9812 1484.41 73.9811 1482.68 74.0599C1480.95 74.0992 1479.73 74.1387 1478.9 74.1387C1478.71 91.2589 1478.59 106.372 1478.55 119.399C1478.51 132.466 1478.47 141.715 1478.47 147.107C1478.47 159.465 1478.55 176.231 1478.67 197.405C1478.78 218.579 1478.9 231.881 1479.02 237.273H1456.74C1456.82 231.881 1456.98 221.413 1457.14 205.866C1457.33 190.32 1457.41 170.996 1457.41 147.854V122.863C1457.41 110.701 1457.18 88.5827 1456.74 56.428C1457.65 56.428 1462.14 56.3493 1470.24 56.1525C1478.35 55.9557 1485.79 55.877 1492.64 55.877C1500.47 55.877 1508.07 56.3099 1515.43 57.2151C1522.79 58.1203 1529.99 60.0488 1536.99 63.0006C1545.89 66.7788 1552.97 72.3282 1558.17 79.6486C1563.4 86.969 1566 95.5882 1566 105.506C1566 118.297 1562.06 128.924 1554.19 137.425C1546.32 145.926 1538.88 152.262 1531.88 156.395V157.064C1544.24 171.469 1557.73 186.345 1572.49 201.695C1587.25 217.044 1595.12 225.269 1596.23 226.45L1596.26 226.411Z" fill="#1E483A"/>
<path d="M1654.63 237.234H1632.36C1632.43 231.842 1632.59 222.2 1632.75 208.346C1632.95 194.492 1633.02 174.578 1633.02 148.641C1633.02 138.369 1632.99 124.909 1632.91 108.261C1632.83 91.6131 1632.63 74.3355 1632.36 56.3887H1654.63C1654.43 69.2584 1654.28 84.2141 1654.16 101.295C1654.04 118.376 1653.96 132.308 1653.96 143.092C1653.96 170.485 1654.04 191.659 1654.24 206.654C1654.4 221.649 1654.55 231.842 1654.63 237.234Z" fill="#1E483A"/>
<path d="M1873.46 56.3883C1873.26 70.5174 1873.1 86.6932 1872.98 104.876C1872.87 123.059 1872.79 136.165 1872.79 144.154C1872.79 169.736 1872.87 190.045 1873.06 205.118C1873.26 220.192 1873.34 228.26 1873.34 229.244L1855.39 238.021C1828.2 201.301 1802.77 168.123 1779.16 138.566C1755.5 108.969 1741.85 91.8883 1738.15 87.3229L1737.87 87.4803C1737.87 111.606 1738.03 141.242 1738.34 176.388C1738.66 211.533 1738.86 231.802 1738.97 237.234H1717.92C1718 234.99 1718.15 226.961 1718.31 213.187C1718.47 199.412 1718.59 180.245 1718.59 155.647C1718.59 145.847 1718.55 132.82 1718.47 116.526C1718.39 100.271 1718.19 83.0723 1717.92 64.8894L1738.46 55.1682C1740.08 57.2541 1753.89 74.7286 1779.87 107.67C1805.84 140.612 1830.32 171.193 1853.27 199.451L1853.54 199.333C1853.54 185.479 1853.34 162.141 1852.99 129.356C1852.64 96.5718 1852.44 72.2491 1852.44 56.3883H1873.5H1873.46Z" fill="#1E483A"/>
<path d="M2070.08 144.312C2069.89 150.806 2069.73 158.362 2069.53 167.06C2069.34 175.758 2069.26 182.921 2069.26 188.588C2069.26 197.68 2069.34 207.834 2069.53 219.051C2069.73 230.268 2069.81 236.486 2069.81 237.745C2068.98 237.824 2066.31 238.021 2061.7 238.336C2057.1 238.651 2052.65 238.808 2048.32 238.808C2026.87 238.808 2007.98 236.525 1991.53 231.921C1975.12 227.316 1960.87 219.326 1948.79 207.873C1941.31 200.828 1935.29 192.131 1930.76 181.74C1926.23 171.35 1923.95 159.464 1923.95 146.162C1923.95 129.789 1928.28 115.109 1936.98 102.2C1945.68 89.2909 1957.6 78.8612 1972.83 70.9111C1983.18 65.5192 1994.95 61.4261 2008.14 58.6711C2021.32 55.9161 2035.1 54.5386 2049.38 54.5386C2051.63 54.5386 2053.71 54.5387 2055.68 54.6174C2057.65 54.6961 2059.34 54.696 2060.87 54.696L2062.49 74.1384C2062.13 74.1384 2060.68 74.1383 2058.16 74.0596C2055.64 74.0596 2053.59 73.9809 2052.06 73.9809C2038.28 73.9809 2025.65 75.1617 2014.2 77.4838C2002.74 79.8058 1992.75 83.2298 1984.17 87.7559C1972.52 93.8956 1963.43 102.239 1956.78 112.787C1950.12 123.335 1946.86 134.551 1946.86 146.437C1946.86 161.472 1950.32 173.948 1957.21 183.826C1964.1 193.705 1972.99 201.419 1983.93 207.008C1993.65 211.967 2003.96 215.469 2014.83 217.476C2025.69 219.484 2036.91 220.507 2048.44 220.507C2048.44 219.051 2048.4 212.045 2048.32 199.451C2048.24 186.857 2048.04 168.438 2047.77 144.194H2070.04L2070.08 144.312Z" fill="#1E483A"/>
<path d="M577.667 163.086C581.917 163.086 584.358 166.864 584.358 171.547C584.358 176.231 581.917 179.773 577.667 179.773H387.455C383.44 179.773 381 176.428 381 171.547C381 166.667 383.44 163.086 387.455 163.086H434.014V106.057H395.916C391.902 106.057 389.462 102.712 389.462 97.8317C389.462 92.9514 391.705 89.6061 395.68 89.6061H433.975V54.4209C433.975 49.7374 437.32 47.5334 442.672 47.5334C448.025 47.5334 451.37 49.7768 451.37 54.4209V89.6061H512.177V54.6571C512.177 49.9736 515.758 47.7696 520.875 47.7696C526.463 47.7696 529.573 50.0129 529.573 54.6571V89.6061H568.536C572.55 89.6061 575.227 93.1875 575.227 97.8317C575.227 102.476 572.787 106.057 568.772 106.057H529.573V163.086H577.667ZM460.501 197.838C460.501 199.609 459.832 201.616 458.258 203.623C443.341 221.885 420.829 238.808 398.789 249.081C397.451 249.75 395.877 250.183 394.342 250.183C391.233 250.183 388.124 248.608 386.313 245.263C385.408 243.689 384.975 241.918 384.975 240.383C384.975 237.47 386.549 234.597 389.895 233.023C411.069 223.459 431.101 209.645 444.011 192.485C445.782 190.242 448.261 189.14 450.701 189.14C452.708 189.14 454.716 189.809 456.487 191.147C459.163 192.721 460.501 195.162 460.501 197.838ZM512.177 106.057H451.37V163.086H512.177V106.057ZM512.413 188.707C514.853 188.707 517.529 189.809 519.537 192.288C534.02 210.314 553.856 223.459 575.463 232.59C578.808 234.164 580.579 237.037 580.579 240.147C580.579 241.721 580.146 243.256 579.477 244.83C577.47 248.412 574.794 250.379 571.448 250.379C570.11 250.379 568.536 249.946 567.001 249.277C543.387 238.808 521.78 222.554 505.289 202.954C503.518 201.183 502.849 199.176 502.849 197.169C502.849 194.493 504.424 192.052 507.297 190.281C508.871 189.179 510.642 188.707 512.413 188.707Z" fill="#1E483A"/>
<path d="M607.067 71.5409C605.296 70.4389 604.39 68.6285 604.39 66.8574C604.39 65.0864 605.059 63.5121 606.161 61.9378C607.736 60.1667 609.743 59.2616 611.75 59.2616C612.852 59.2616 614.19 59.6945 615.095 60.3636C616.867 61.7017 618.677 62.8036 620.448 64.3779C626.234 58.1595 631.35 50.7998 635.168 44.7782C636.27 43.0072 638.08 41.8657 640.284 41.8657C641.622 41.8657 642.96 42.2986 644.534 43.2038C646.778 44.3058 648.313 46.7854 648.313 48.7926C648.313 49.6978 648.077 50.3669 647.644 51.2327C642.96 58.1202 636.742 65.48 630.051 72.1707C633.396 75.0831 636.742 78.1923 639.851 81.3015C644.771 75.516 649.415 69.7305 653.665 64.1418C655.003 62.3707 657.011 61.4655 659.018 61.4655C660.356 61.4655 661.93 61.8985 663.268 62.8037C665.276 63.9057 666.614 66.1491 666.614 68.3924C666.614 69.4944 666.181 70.6357 665.512 71.5015C657.719 81.3014 646.148 93.5414 635.207 103.577C642.763 102.908 650.359 102.003 657.719 100.901C659.49 97.9888 660.828 95.1158 662.166 92.2033C663.268 89.96 665.079 88.858 667.283 88.858C668.188 88.858 669.29 89.0942 670.195 89.5271C672.635 90.6291 673.974 92.4395 673.974 94.2106C673.974 95.1158 673.737 95.7848 673.541 96.6507C663.308 118.691 646.384 140.298 619.858 154.348C618.52 155.017 617.181 155.45 615.843 155.45C613.403 155.45 611.396 154.348 610.058 151.869C609.389 150.53 608.956 149.192 608.956 147.854C608.956 145.611 610.058 143.604 612.537 142.265C627.454 134.906 639.93 124.909 649.73 112.63C635.482 115.542 620.566 117.746 607.421 118.848H606.988C603.643 118.848 600.966 117.077 600.77 112.826V111.724C600.77 108.143 603.013 105.703 605.886 105.703C609.231 105.467 612.773 105.27 616.355 105.034C621.471 100.586 626.391 95.9029 631.074 90.9833C623.282 83.1906 614.151 76.2637 607.224 71.3835L607.067 71.5409Z" fill="#1E483A"/>
<path d="M678.775 165.526C675.666 165.526 674.328 163.518 674.328 160.606C674.328 159.937 674.564 159.268 674.761 158.599C656.735 168.163 635.994 176.86 610.845 183.315C610.176 183.551 609.271 183.551 608.602 183.551C605.256 183.551 602.816 181.544 601.714 177.53C601.478 176.624 601.478 175.955 601.478 175.286C601.478 171.941 603.485 169.265 607.263 168.596C641.11 161.472 666.732 150.767 689.441 135.418C693.455 132.741 698.335 131.167 703.255 131.167C708.175 131.167 712.622 132.505 716.636 135.614C738.912 152.774 770.319 162.102 801.057 166.785C805.505 167.454 807.512 169.894 807.512 173.476C807.512 174.145 807.512 174.814 807.276 175.483C806.607 179.261 803.694 181.701 799.916 181.701C799.247 181.701 798.342 181.701 797.672 181.465C774.058 176.113 751.782 169.658 731.08 158.953C731.317 159.386 731.317 160.055 731.317 160.527C731.317 163.44 729.742 165.447 727.066 165.447H678.736L678.775 165.526Z" fill="#1E483A"/>
<path d="M655.83 216.965V234.991C671.218 233.22 686.568 231.212 699.044 228.969C700.146 228.733 701.051 228.733 701.956 228.733C704.869 228.733 706.64 229.835 707.506 233.18C707.742 233.849 707.742 234.518 707.742 235.187C707.742 238.1 705.971 240.304 702.192 240.973C677.004 246.325 643.629 250.104 617.772 252.347H616.67C612.891 252.347 610.215 250.34 609.782 245.46V244.358C609.782 240.107 612.458 238.336 616.001 238.139C623.557 237.903 631.822 237.234 640.284 236.368V186.267C640.284 177.569 647.644 172.452 656.774 172.452H752.569C760.795 172.452 767.722 177.372 767.722 185.165V204.765C767.722 212.321 761.936 217.005 754.144 217.005H716.518C722.973 222.79 730.333 227.237 738.362 230.583C752.412 224.364 764.849 215.863 774.216 208.307C775.79 207.205 777.561 206.299 779.568 206.299C781.143 206.299 782.677 206.969 784.252 208.543C785.826 210.314 786.692 212.124 786.692 213.895C786.692 215.47 786.023 217.005 784.252 218.146C775.357 224.6 765.754 230.189 755.088 235.738C767.131 238.415 781.143 239.517 797.397 239.989C802.513 240.225 804.757 242.429 804.757 246.207C804.757 246.64 804.757 247.309 804.521 247.782C804.284 251.796 801.844 254 796.728 254H795.823C757.056 252.426 722.107 243.295 698.021 217.005H655.909L655.83 216.965Z" fill="#1E483A"/>
<path d="M752.491 189.809V186.031C752.491 182.449 750.72 181.78 747.138 181.78H661.615C657.601 181.78 655.83 182.449 655.83 186.031V189.809H752.491Z" fill="white"/>
<path d="M747.177 207.638C750.759 207.638 752.53 206.732 752.53 202.954V199.176H655.869V207.638H747.177Z" fill="white"/>
<path d="M689.244 131.246C689.244 135.024 686.135 137.031 682.12 137.031C678.106 137.031 675.666 135.024 675.666 131.442V64.6142C675.666 55.2472 679.916 51.469 690.385 51.469H698.847C700.421 49.0288 701.523 46.7856 702.429 44.7784C703.531 42.1021 705.538 41 709.119 41C709.788 41 710.693 41 711.559 41.2361C714.905 41.6691 716.912 43.6763 716.912 45.9196C716.912 46.5887 716.676 47.2578 716.243 48.163C715.574 49.265 714.905 50.4064 714.236 51.5084H725.61C735.843 51.5084 740.093 55.2866 740.093 64.4175V80.4358C740.093 89.3305 735.843 92.9119 725.61 92.9119H689.283V100.468H737.614C740.29 100.468 741.864 102.239 741.864 104.719C741.864 107.631 740.29 109.402 737.614 109.402H689.283V117.431H737.85C740.526 117.431 741.864 119.202 741.864 121.879C741.864 124.555 740.526 126.129 737.85 126.129H689.283V131.246H689.244Z" fill="#1E483A"/>
<path d="M724.901 155.726C719.116 152.38 713.33 148.838 707.742 144.588C705.734 143.249 704.396 142.58 703.058 142.58C701.484 142.58 699.949 143.249 697.706 144.588C692.156 148.366 686.135 152.144 679.877 155.726H724.862H724.901Z" fill="white"/>
<path d="M726.909 68.4321V64.4177C726.909 61.3085 725.138 60.4033 721.792 60.4033H694.4C691.054 60.4033 689.283 61.3085 689.283 64.4177V68.4321H726.909Z" fill="white"/>
<path d="M721.753 84.4502C725.098 84.4502 726.869 83.7812 726.869 80.672V76.4214H689.244V84.4502H721.753Z" fill="white"/>
<path d="M795.036 47.4939C803.497 47.4939 808.181 52.1774 808.181 57.9629C808.181 60.2062 807.512 62.6463 805.937 65.0865C801.923 71.541 797.043 78.4679 792.359 83.781C791.454 84.883 791.021 85.5522 791.021 86.4574C791.021 87.3626 791.69 88.0317 792.792 88.8975C802.828 96.0211 808.614 103.145 808.614 114.755C808.614 127.231 800.388 133.45 784.999 133.45C780.985 133.45 777.876 133.45 775.2 132.781C772.523 132.111 770.516 129.671 770.516 126.09C770.516 125.657 770.516 125.185 770.752 124.516C771.185 121.17 773.861 119.163 776.774 119.163H777.679C779.253 119.399 781.694 119.596 783.465 119.596C791.257 119.596 793.501 117.156 793.501 112.039C793.501 104.916 789.486 99.3272 780.119 93.1088C777.679 91.3377 776.341 89.3304 776.341 86.8903C776.341 84.8831 777.246 82.8759 779.017 80.6719C783.032 75.9884 787.046 69.9668 790.155 64.6142C790.588 63.709 790.824 62.8432 790.824 62.1741C790.824 60.836 789.722 60.1669 787.912 60.1669H770.555C767.21 60.1669 765.439 61.2688 765.439 65.0865V141.478C765.439 145.06 762.094 147.067 758.315 147.067C754.065 147.067 750.956 145.06 750.956 141.046V61.9774C750.956 51.5084 755.875 47.4939 767.21 47.4939H795.036Z" fill="#1E483A"/>
</svg>
