<svg width="18" height="18" viewBox="0 0 18 18" fill="none" xmlns="http://www.w3.org/2000/svg">
<g clip-path="url(#clip0_150_1883)">
<path d="M14.6 0.113447L13.25 1.68845L11.3375 0.113447C11.2404 0.0398762 11.1219 6.01591e-05 11 6.01591e-05C10.8781 6.01591e-05 10.7596 0.0398762 10.6625 0.113447L8.75 1.68845L6.8375 0.113447C6.74037 0.0398762 6.62185 6.01591e-05 6.5 6.01591e-05C6.37815 6.01591e-05 6.25963 0.0398762 6.1625 0.113447L4.25 1.68845L2.9 0.113447C2.52734 -0.164288 2 0.0993844 2 0.563447V17.4384C2 17.9025 2.52734 18.1662 2.9 17.8884L4.25 16.3134L6.1625 17.8884C6.25963 17.962 6.37815 18.0018 6.5 18.0018C6.62185 18.0018 6.74037 17.962 6.8375 17.8884L8.75 16.3134L10.6625 17.8884C10.7596 17.962 10.8781 18.0018 11 18.0018C11.1219 18.0018 11.2404 17.962 11.3375 17.8884L13.25 16.3134L14.6 17.8884C14.9691 18.1662 15.5 17.9025 15.5 17.4384V0.563447C15.5 0.0993844 14.9727 -0.164288 14.6 0.113447ZM13.25 12.6572C13.25 12.8119 13.1234 12.9384 12.9688 12.9384H4.53125C4.37656 12.9384 4.25 12.8119 4.25 12.6572V12.0947C4.25 11.94 4.37656 11.8134 4.53125 11.8134H12.9688C13.1234 11.8134 13.25 11.94 13.25 12.0947V12.6572ZM13.25 9.2822C13.25 9.43688 13.1234 9.56345 12.9688 9.56345H4.53125C4.37656 9.56345 4.25 9.43688 4.25 9.2822V8.7197C4.25 8.56501 4.37656 8.43845 4.53125 8.43845H12.9688C13.1234 8.43845 13.25 8.56501 13.25 8.7197V9.2822ZM13.25 5.9072C13.25 6.06188 13.1234 6.18845 12.9688 6.18845H4.53125C4.37656 6.18845 4.25 6.06188 4.25 5.9072V5.3447C4.25 5.19001 4.37656 5.06345 4.53125 5.06345H12.9688C13.1234 5.06345 13.25 5.19001 13.25 5.3447V5.9072Z" fill="#FFBC0E"/>
</g>
<defs>
<clipPath id="clip0_150_1883">
<rect width="18" height="18" fill="white"/>
</clipPath>
</defs>
</svg>
