<svg width="16" height="18" viewBox="0 0 16 18" fill="none" xmlns="http://www.w3.org/2000/svg">
<g clip-path="url(#clip0_150_1865)">
<path d="M12.375 5.625V4.5C12.375 2.01797 10.357 0 7.875 0C5.39297 0 3.375 2.01797 3.375 4.5V5.625H0V15.1875C0 16.7414 1.25859 18 2.8125 18H12.9375C14.4914 18 15.75 16.7414 15.75 15.1875V5.625H12.375ZM5.625 4.5C5.625 3.25898 6.63398 2.25 7.875 2.25C9.11602 2.25 10.125 3.25898 10.125 4.5V5.625H5.625V4.5ZM11.25 8.71875C10.7824 8.71875 10.4062 8.34258 10.4062 7.875C10.4062 7.40742 10.7824 7.03125 11.25 7.03125C11.7176 7.03125 12.0938 7.40742 12.0938 7.875C12.0938 8.34258 11.7176 8.71875 11.25 8.71875ZM4.5 8.71875C4.03242 8.71875 3.65625 8.34258 3.65625 7.875C3.65625 7.40742 4.03242 7.03125 4.5 7.03125C4.96758 7.03125 5.34375 7.40742 5.34375 7.875C5.34375 8.34258 4.96758 8.71875 4.5 8.71875Z" fill="#FFBC0E"/>
</g>
<defs>
<clipPath id="clip0_150_1865">
<rect width="15.75" height="18" fill="white"/>
</clipPath>
</defs>
</svg>
