<svg width="183" height="188" viewBox="0 0 183 188" fill="none" xmlns="http://www.w3.org/2000/svg">
<path d="M170.421 89.0107C170.156 89.0107 169.901 88.9054 169.714 88.7178C169.526 88.5303 169.421 88.276 169.421 88.0107V84.0107C169.421 83.7455 169.526 83.4912 169.714 83.3036C169.901 83.1161 170.156 83.0107 170.421 83.0107C170.686 83.0107 170.94 83.1161 171.128 83.3036C171.316 83.4912 171.421 83.7455 171.421 84.0107V88.0107C171.421 88.276 171.316 88.5303 171.128 88.7178C170.94 88.9054 170.686 89.0107 170.421 89.0107Z" fill="#DFEAEF"/>
<path d="M170.421 98.1104C170.156 98.1104 169.901 98.005 169.714 97.8175C169.526 97.6299 169.421 97.3756 169.421 97.1104V93.1104C169.421 92.8451 169.526 92.5908 169.714 92.4032C169.901 92.2157 170.156 92.1104 170.421 92.1104C170.686 92.1104 170.94 92.2157 171.128 92.4032C171.316 92.5908 171.421 92.8451 171.421 93.1104V97.1104C171.421 97.3756 171.316 97.6299 171.128 97.8175C170.94 98.005 170.686 98.1104 170.421 98.1104Z" fill="#DFEAEF"/>
<path d="M176.991 91.5405H172.991C172.726 91.5405 172.471 91.4352 172.284 91.2476C172.096 91.0601 171.991 90.8057 171.991 90.5405C171.991 90.2753 172.096 90.021 172.284 89.8334C172.471 89.6459 172.726 89.5405 172.991 89.5405H176.991C177.256 89.5405 177.51 89.6459 177.698 89.8334C177.885 90.021 177.991 90.2753 177.991 90.5405C177.991 90.8057 177.885 91.0601 177.698 91.2476C177.51 91.4352 177.256 91.5405 176.991 91.5405Z" fill="#DFEAEF"/>
<path d="M167.891 91.5405H163.891C163.625 91.5405 163.371 91.4352 163.184 91.2476C162.996 91.0601 162.891 90.8057 162.891 90.5405C162.891 90.2753 162.996 90.021 163.184 89.8334C163.371 89.6459 163.625 89.5405 163.891 89.5405H167.891C168.156 89.5405 168.41 89.6459 168.598 89.8334C168.785 90.021 168.891 90.2753 168.891 90.5405C168.891 90.8057 168.785 91.0601 168.598 91.2476C168.41 91.4352 168.156 91.5405 167.891 91.5405Z" fill="#DFEAEF"/>
<path d="M120.281 10.1807C120.016 10.1807 119.761 10.0753 119.574 9.88777C119.386 9.70024 119.281 9.44588 119.281 9.18066V5.18066C119.281 4.91545 119.386 4.66109 119.574 4.47356C119.761 4.28602 120.016 4.18066 120.281 4.18066C120.546 4.18066 120.8 4.28602 120.988 4.47356C121.175 4.66109 121.281 4.91545 121.281 5.18066V9.18066C121.281 9.44588 121.175 9.70024 120.988 9.88777C120.8 10.0753 120.546 10.1807 120.281 10.1807Z" fill="#DFEAEF"/>
<path d="M120.281 19.2907C120.016 19.2907 119.761 19.1854 119.574 18.9978C119.386 18.8103 119.281 18.5559 119.281 18.2907V14.2407C119.281 13.9755 119.386 13.7212 119.574 13.5336C119.761 13.3461 120.016 13.2407 120.281 13.2407C120.546 13.2407 120.8 13.3461 120.988 13.5336C121.175 13.7212 121.281 13.9755 121.281 14.2407V18.2907C121.281 18.5559 121.175 18.8103 120.988 18.9978C120.8 19.1854 120.546 19.2907 120.281 19.2907Z" fill="#DFEAEF"/>
<path d="M126.851 12.7505H122.851C122.585 12.7505 122.331 12.6451 122.143 12.4576C121.956 12.2701 121.851 12.0157 121.851 11.7505C121.851 11.4853 121.956 11.2309 122.143 11.0434C122.331 10.8558 122.585 10.7505 122.851 10.7505H126.851C127.116 10.7505 127.37 10.8558 127.558 11.0434C127.745 11.2309 127.851 11.4853 127.851 11.7505C127.851 12.0157 127.745 12.2701 127.558 12.4576C127.37 12.6451 127.116 12.7505 126.851 12.7505Z" fill="#DFEAEF"/>
<path d="M117.75 12.7505H113.75C113.485 12.7505 113.231 12.6451 113.043 12.4576C112.856 12.2701 112.75 12.0157 112.75 11.7505C112.75 11.4853 112.856 11.2309 113.043 11.0434C113.231 10.8558 113.485 10.7505 113.75 10.7505H117.75C118.016 10.7505 118.27 10.8558 118.458 11.0434C118.645 11.2309 118.75 11.4853 118.75 11.7505C118.75 12.0157 118.645 12.2701 118.458 12.4576C118.27 12.6451 118.016 12.7505 117.75 12.7505Z" fill="#DFEAEF"/>
<path d="M177.181 60.2803C176.915 60.2803 176.661 60.175 176.474 59.9874C176.286 59.7999 176.181 59.5456 176.181 59.2803V51.8403C176.181 51.5751 176.286 51.3208 176.474 51.1332C176.661 50.9457 176.915 50.8403 177.181 50.8403C177.446 50.8403 177.7 50.9457 177.888 51.1332C178.075 51.3208 178.181 51.5751 178.181 51.8403V59.2803C178.181 59.5456 178.075 59.7999 177.888 59.9874C177.7 60.175 177.446 60.2803 177.181 60.2803Z" fill="#DFEAEF"/>
<path d="M180.891 56.5605H173.491C173.226 56.5605 172.971 56.4552 172.784 56.2677C172.596 56.0801 172.491 55.8258 172.491 55.5605C172.491 55.2953 172.596 55.041 172.784 54.8534C172.971 54.6659 173.226 54.5605 173.491 54.5605H180.921C181.186 54.5605 181.44 54.6659 181.628 54.8534C181.815 55.041 181.921 55.2953 181.921 55.5605C181.921 55.8258 181.815 56.0801 181.628 56.2677C181.44 56.4552 181.186 56.5605 180.921 56.5605H180.891Z" fill="#DFEAEF"/>
<path d="M90.4687 183.132L149.914 145.755C154.043 143.159 155.285 137.708 152.69 133.58L79.8463 17.7271C77.2505 13.5987 71.7995 12.3562 67.6711 14.952L8.22527 52.3291C4.09686 54.9249 2.8544 60.3759 5.45018 64.5044L78.2934 180.357C80.8892 184.485 86.3403 185.728 90.4687 183.132Z" fill="#093F68"/>
<path d="M85.7907 185.501C84.1256 185.505 82.4867 185.085 81.028 184.283C79.5692 183.48 78.3383 182.319 77.4507 180.911L4.60066 65.0607C3.91113 63.9693 3.44377 62.7526 3.22538 61.4803C3.007 60.208 3.04187 58.9051 3.328 57.6463C3.61413 56.3875 4.1459 55.1976 4.89282 54.1447C5.63974 53.0918 6.58713 52.1967 7.68066 51.5107L67.1307 14.1207C69.3382 12.737 72.0043 12.2852 74.5444 12.8645C77.0846 13.4438 79.2913 15.0067 80.6807 17.2107L153.541 133.061C154.931 135.263 155.39 137.926 154.818 140.467C154.247 143.007 152.69 145.217 150.491 146.611L91.0407 184.001C89.4692 184.99 87.6478 185.511 85.7907 185.501ZM72.3507 14.6207C70.8812 14.6165 69.4412 15.0329 68.2007 15.8207L8.75066 53.2007C7.8801 53.7471 7.12581 54.4598 6.53093 55.298C5.93605 56.1363 5.51224 57.0835 5.28376 58.0857C5.05529 59.0878 5.02662 60.1252 5.19939 61.1384C5.37216 62.1516 5.74299 63.1209 6.29066 63.9907L79.1407 179.841C80.248 181.597 82.0071 182.843 84.0319 183.304C86.0567 183.766 88.1817 183.405 89.9407 182.301L149.391 144.921C150.26 144.373 151.014 143.66 151.608 142.822C152.202 141.983 152.624 141.036 152.852 140.033C153.079 139.031 153.107 137.994 152.934 136.981C152.76 135.969 152.389 135 151.841 134.131L78.9907 18.2707C78.2846 17.1488 77.3046 16.225 76.1429 15.5865C74.9813 14.9479 73.6762 14.6156 72.3507 14.6207Z" fill="#093F68"/>
<path d="M99.1014 176.528L158.788 139.312C162.934 136.727 164.199 131.272 161.614 127.126L89.0835 10.8038C86.4989 6.65866 81.0433 5.39359 76.8981 7.97822L17.2111 45.1948C13.066 47.7795 11.8009 53.2351 14.3855 57.3802L86.916 173.703C89.5007 177.848 94.9563 179.113 99.1014 176.528Z" fill="#9F4900"/>
<path d="M95.0505 179.68C93.3847 179.682 91.7456 179.261 90.2869 178.457C88.8282 177.652 87.5976 176.49 86.7105 175.08L13.8605 59.2305C13.1714 58.1385 12.7047 56.9213 12.487 55.6486C12.2694 54.3759 12.3052 53.0728 12.5922 51.8139C12.8793 50.555 13.4121 49.3652 14.16 48.3127C14.9079 47.2602 15.8562 46.3657 16.9505 45.6805L76.3905 8.30045C78.5989 6.91361 81.2674 6.46005 83.8099 7.03944C86.3525 7.61882 88.5611 9.18375 89.9505 11.3904L162.801 127.24C164.174 129.444 164.62 132.101 164.041 134.633C163.462 137.164 161.905 139.363 159.711 140.75L100.261 178.13C98.7054 179.13 96.8988 179.667 95.0505 179.68ZM81.6105 8.75045C80.1417 8.75121 78.7031 9.16721 77.4605 9.95045L18.0105 47.3404C17.1389 47.886 16.3837 48.5983 15.788 49.4364C15.1924 50.2745 14.7681 51.222 14.5396 52.2245C14.311 53.227 14.2827 54.2648 14.4561 55.2783C14.6296 56.2918 15.0015 57.261 15.5505 58.1304L88.4105 173.98C89.516 175.737 91.2733 176.982 93.2965 177.443C95.3196 177.905 97.4431 177.544 99.2005 176.44L158.651 139.05C160.407 137.945 161.652 136.188 162.113 134.165C162.575 132.141 162.214 130.018 161.111 128.26L88.2505 12.4504C87.7069 11.5792 86.9956 10.8246 86.1578 10.2306C85.3201 9.63664 84.3726 9.21508 83.3705 8.99045C82.7954 8.84138 82.2046 8.76083 81.6105 8.75045Z" fill="#093F68"/>
<path d="M90.0416 160.083L147.854 123.734C150.014 122.375 150.664 119.523 149.305 117.363L91.5525 25.511C90.1944 23.3509 87.3423 22.7009 85.1822 24.059L27.3703 60.4088C25.2103 61.7669 24.5602 64.619 25.9183 66.7791L83.6713 158.631C85.0295 160.791 87.8815 161.441 90.0416 160.083Z" fill="white"/>
<path d="M87.5906 161.811C86.6402 161.813 85.7049 161.574 84.8723 161.115C84.0397 160.657 83.3371 159.995 82.8306 159.191L25.0606 67.3306C24.6681 66.7063 24.4024 66.0108 24.2789 65.2838C24.1554 64.5567 24.1765 63.8125 24.3409 63.0936C24.5053 62.3747 24.8098 61.6953 25.237 61.0942C25.6642 60.4931 26.2057 59.9822 26.8306 59.5906L84.6506 23.2306C85.9109 22.4395 87.4335 22.1806 88.8845 22.5105C90.3354 22.8404 91.5963 23.7323 92.3906 24.9906L150.161 116.851C150.948 118.113 151.204 119.635 150.872 121.086C150.541 122.536 149.648 123.796 148.391 124.591L90.5706 160.961C89.6775 161.52 88.6443 161.814 87.5906 161.811ZM87.6306 24.3606C86.9506 24.3622 86.2849 24.5563 85.7106 24.9206L27.8906 61.2806C27.4866 61.5333 27.1367 61.8636 26.8609 62.2523C26.5852 62.641 26.3892 63.0804 26.2841 63.5452C26.1791 64.01 26.1671 64.4911 26.2489 64.9605C26.3306 65.43 26.5046 65.8787 26.7606 66.2806L84.4906 158.131C85.0048 158.942 85.8198 159.517 86.7571 159.729C87.6943 159.941 88.6774 159.772 89.4906 159.261L147.311 122.901C147.715 122.648 148.065 122.318 148.34 121.929C148.616 121.54 148.812 121.101 148.917 120.636C149.022 120.171 149.034 119.69 148.952 119.221C148.871 118.751 148.697 118.303 148.441 117.901L90.7006 26.0606C90.4486 25.6576 90.1191 25.3086 89.7311 25.0339C89.3431 24.7593 88.9045 24.5644 88.4406 24.4606C88.176 24.3929 87.9038 24.3593 87.6306 24.3606Z" fill="#093F68"/>
<path d="M64.0909 29.7404C64.8752 29.7404 65.5109 29.1046 65.5109 28.3204C65.5109 27.5361 64.8752 26.9004 64.0909 26.9004C63.3067 26.9004 62.6709 27.5361 62.6709 28.3204C62.6709 29.1046 63.3067 29.7404 64.0909 29.7404Z" fill="#093F68"/>
<path d="M39.1209 45.0204C38.9032 45.0211 38.6911 44.9507 38.5171 44.82C38.343 44.6892 38.2163 44.5051 38.1563 44.2958C38.0964 44.0865 38.1064 43.8633 38.1848 43.6602C38.2632 43.4571 38.4058 43.2851 38.5909 43.1704L57.8109 31.0804C57.9225 31.0108 58.0468 30.9639 58.1765 30.9423C58.3063 30.9207 58.439 30.9249 58.5672 30.9546C58.6953 30.9843 58.8164 31.039 58.9234 31.1155C59.0304 31.192 59.1213 31.2888 59.1909 31.4004C59.2605 31.512 59.3074 31.6363 59.329 31.766C59.3506 31.8958 59.3464 32.0285 59.3167 32.1567C59.287 32.2848 59.2323 32.4059 59.1558 32.5129C59.0793 32.6199 58.9825 32.7108 58.8709 32.7804L39.6509 44.8704C39.4918 44.969 39.3081 45.021 39.1209 45.0204Z" fill="#093F68"/>
<path d="M123.921 155.8C127.224 155.8 129.901 153.123 129.901 149.82C129.901 146.518 127.224 143.84 123.921 143.84C120.618 143.84 117.941 146.518 117.941 149.82C117.941 153.123 120.618 155.8 123.921 155.8Z" fill="#093F68"/>
<path d="M34.3406 109.091C34.1258 109.088 33.9175 109.016 33.7467 108.886C33.5759 108.756 33.4516 108.574 33.3921 108.367C33.3326 108.161 33.3412 107.941 33.4166 107.74C33.492 107.539 33.6301 107.367 33.8106 107.251L38.4806 104.311C38.5914 104.229 38.7178 104.172 38.8517 104.142C38.9857 104.112 39.1245 104.11 39.2593 104.136C39.3942 104.161 39.5223 104.215 39.6356 104.292C39.749 104.37 39.8451 104.47 39.9181 104.586C39.991 104.703 40.0393 104.833 40.0597 104.969C40.0802 105.104 40.0725 105.243 40.0371 105.376C40.0017 105.508 39.9393 105.632 39.8539 105.74C39.7684 105.847 39.6618 105.936 39.5406 106.001L34.8706 108.941C34.7114 109.039 34.5278 109.091 34.3406 109.091Z" fill="#093F68"/>
<path d="M142.041 119.751C141.873 119.75 141.709 119.708 141.562 119.628C141.415 119.547 141.291 119.432 141.201 119.291L125.881 95.0508C125.739 94.8266 125.692 94.5553 125.75 94.2965C125.808 94.0377 125.967 93.8126 126.191 93.6707C126.415 93.5289 126.686 93.4818 126.945 93.5399C127.204 93.5981 127.429 93.7566 127.571 93.9807L142.891 118.201C142.961 118.312 143.009 118.435 143.031 118.565C143.054 118.694 143.05 118.827 143.022 118.955C142.993 119.083 142.939 119.204 142.863 119.312C142.788 119.419 142.692 119.511 142.581 119.581C142.419 119.684 142.233 119.743 142.041 119.751Z" fill="#DFEAEF"/>
<path d="M46.1608 83.6606C45.9935 83.6603 45.8289 83.6181 45.6822 83.5377C45.5354 83.4574 45.4112 83.3414 45.3208 83.2006L42.2508 78.4306C42.1782 78.3196 42.1285 78.1952 42.1044 78.0647C42.0804 77.9342 42.0826 77.8003 42.1108 77.6706C42.139 77.5418 42.1924 77.4198 42.2679 77.3117C42.3434 77.2035 42.4396 77.1114 42.5508 77.0406L93.8508 44.6306C94.0729 44.4909 94.3409 44.4441 94.5972 44.5002C94.8535 44.5563 95.0775 44.7109 95.2208 44.9306L107.981 64.0906C108.063 64.1993 108.121 64.3235 108.153 64.4557C108.185 64.5878 108.19 64.7251 108.168 64.8592C108.145 64.9933 108.095 65.1213 108.021 65.2354C107.947 65.3496 107.851 65.4474 107.737 65.523C107.624 65.5986 107.497 65.6503 107.363 65.6751C107.23 65.6998 107.092 65.697 106.96 65.6668C106.827 65.6366 106.702 65.5797 106.592 65.4996C106.482 65.4194 106.39 65.3177 106.321 65.2006L94.1008 46.8506L44.4908 78.1906L47.0108 82.1206C47.1537 82.3435 47.2023 82.6139 47.1461 82.8726C47.0898 83.1313 46.9333 83.3572 46.7108 83.5006C46.547 83.6064 46.3558 83.6621 46.1608 83.6606Z" fill="#DFEAEF"/>
<path d="M70.9508 108.66C70.8137 108.66 70.6781 108.631 70.5525 108.576C70.4269 108.521 70.314 108.441 70.2208 108.34C70.041 108.146 69.9454 107.889 69.9547 107.625C69.9641 107.361 70.0777 107.111 70.2708 106.93L109.801 69.9302C109.994 69.7486 110.252 69.6512 110.518 69.6597C110.783 69.6681 111.034 69.7816 111.216 69.9752C111.397 70.1688 111.495 70.4267 111.486 70.6921C111.478 70.9574 111.364 71.2086 111.171 71.3902L71.6308 108.39C71.4464 108.563 71.2034 108.659 70.9508 108.66Z" fill="#093F68"/>
<path d="M104.081 126.37C103.909 126.37 103.74 126.325 103.591 126.241C103.476 126.177 103.375 126.091 103.293 125.988C103.211 125.886 103.15 125.768 103.114 125.641C103.078 125.515 103.067 125.383 103.082 125.252C103.097 125.122 103.137 124.995 103.201 124.881L126.491 83.4805C126.623 83.2498 126.842 83.0811 127.099 83.0118C127.356 82.9424 127.63 82.9779 127.861 83.1105C128.092 83.2431 128.26 83.4619 128.33 83.7189C128.399 83.9758 128.363 84.2498 128.231 84.4805L104.931 125.881C104.843 126.028 104.719 126.151 104.57 126.237C104.421 126.323 104.253 126.369 104.081 126.37Z" fill="#093F68"/>
<path d="M88.0406 92.6604C87.8742 92.6612 87.7102 92.6204 87.5636 92.5418C87.4169 92.4633 87.2921 92.3493 87.2006 92.2104C86.1898 90.5236 84.8283 89.0737 83.2082 87.9592C81.5881 86.8446 79.7473 86.0913 77.8106 85.7504C72.5106 84.8504 65.8606 87.0004 60.0206 91.5004C59.8813 91.6103 59.7153 91.6812 59.5396 91.7058C59.3638 91.7305 59.1847 91.7078 59.0206 91.6404C58.8594 91.5767 58.7175 91.4723 58.6088 91.3373C58.5001 91.2023 58.4284 91.0414 58.4006 90.8704C58.0417 89.0546 57.1744 87.3783 55.8998 86.0363C54.6251 84.6944 52.9955 83.7421 51.2006 83.2904C49.3534 82.865 47.4349 82.8543 45.5831 83.2589C43.7313 83.6635 41.9921 84.4734 40.4906 85.6304C40.3843 85.7081 40.2638 85.7641 40.1358 85.7951C40.0078 85.8262 39.875 85.8316 39.7449 85.8112C39.6148 85.7907 39.4901 85.7448 39.3778 85.676C39.2655 85.6072 39.1679 85.517 39.0906 85.4104C38.9357 85.1976 38.8708 84.9324 38.9101 84.6722C38.9495 84.412 39.0898 84.1778 39.3006 84.0204C41.0449 82.6889 43.0618 81.7592 45.2071 81.2977C47.3523 80.8361 49.5731 80.8541 51.7106 81.3504C53.6161 81.8512 55.3698 82.8113 56.8185 84.1467C58.2671 85.482 59.3665 87.1519 60.0206 89.0104C66.0206 84.7404 72.5906 82.8304 78.1306 83.7704C80.3424 84.1557 82.4458 85.0113 84.2986 86.2793C86.1514 87.5473 87.7105 89.1981 88.8706 91.1204C88.9675 91.2713 89.0219 91.4456 89.0283 91.6248C89.0347 91.8041 88.9927 91.9817 88.9068 92.1392C88.8209 92.2967 88.6943 92.4281 88.5401 92.5198C88.386 92.6115 88.21 92.6601 88.0306 92.6604H88.0406Z" fill="#093F68"/>
<path d="M75.4909 112.371C75.2526 112.371 75.0221 112.285 74.8409 112.131C65.6509 104.391 52.0109 108.791 51.8409 108.831C51.5903 108.913 51.3172 108.893 51.0812 108.775C50.8452 108.657 50.6653 108.451 50.5809 108.201C50.5386 108.076 50.5213 107.944 50.53 107.812C50.5388 107.681 50.5735 107.553 50.632 107.435C50.6905 107.317 50.7718 107.211 50.8712 107.125C50.9705 107.038 51.086 106.972 51.2109 106.93C51.8109 106.74 66.0409 102.141 76.1009 110.601C76.2595 110.732 76.3736 110.909 76.4277 111.108C76.4819 111.306 76.4733 111.517 76.4033 111.711C76.3333 111.904 76.2052 112.072 76.0365 112.19C75.8679 112.308 75.6669 112.371 75.4609 112.371H75.4909Z" fill="#093F68"/>
<path d="M134.951 130.55C134.697 130.551 134.453 130.455 134.267 130.283C134.082 130.11 133.968 129.873 133.951 129.62C133.928 128.997 133.774 128.384 133.498 127.824C133.222 127.264 132.831 126.769 132.351 126.37C130.691 125 127.721 124.45 124.191 124.86C124.026 124.879 123.86 124.856 123.707 124.795C123.553 124.733 123.418 124.635 123.312 124.508C123.206 124.381 123.133 124.23 123.099 124.068C123.066 123.906 123.073 123.739 123.121 123.58C123.6 121.995 123.719 120.323 123.471 118.685C123.222 117.048 122.611 115.486 121.683 114.115C120.755 112.743 119.533 111.595 118.105 110.756C116.677 109.916 115.081 109.405 113.431 109.26C113.165 109.237 112.921 109.108 112.75 108.904C112.579 108.699 112.497 108.436 112.521 108.17C112.545 107.905 112.673 107.66 112.877 107.49C113.082 107.319 113.345 107.237 113.611 107.26C115.436 107.419 117.208 107.958 118.812 108.843C120.416 109.728 121.817 110.939 122.925 112.398C124.033 113.857 124.823 115.532 125.244 117.315C125.665 119.098 125.708 120.95 125.371 122.75C127.851 122.62 131.281 122.88 133.621 124.82C134.312 125.39 134.876 126.098 135.278 126.899C135.679 127.7 135.908 128.576 135.951 129.47C135.96 129.602 135.944 129.734 135.902 129.859C135.86 129.984 135.794 130.099 135.708 130.199C135.622 130.298 135.516 130.379 135.398 130.438C135.28 130.497 135.152 130.532 135.021 130.54L134.951 130.55Z" fill="#093F68"/>
<path d="M125.001 131.55C124.757 131.552 124.52 131.465 124.336 131.305C124.152 131.144 124.032 130.922 124.001 130.68C123.695 128.601 122.768 126.663 121.34 125.121C119.912 123.578 118.05 122.505 116.001 122.04C115.872 122.013 115.75 121.96 115.641 121.886C115.533 121.811 115.44 121.716 115.368 121.605C115.297 121.495 115.248 121.371 115.224 121.242C115.201 121.112 115.203 120.979 115.231 120.85C115.258 120.721 115.31 120.599 115.385 120.491C115.46 120.382 115.555 120.29 115.666 120.218C115.776 120.146 115.9 120.098 116.029 120.074C116.159 120.05 116.292 120.052 116.421 120.08C118.866 120.644 121.083 121.933 122.784 123.777C124.484 125.622 125.588 127.938 125.951 130.42C125.985 130.683 125.913 130.948 125.752 131.158C125.591 131.368 125.353 131.505 125.091 131.54L125.001 131.55Z" fill="#093F68"/>
<path d="M121.121 43.8807C117.713 43.0973 114.178 43.0397 110.746 43.7116C107.314 44.3835 104.062 45.7699 101.201 47.7807C92.791 53.5107 87.6309 62.0307 83.7709 70.7007C83.6311 71.0237 83.6047 71.3845 83.6958 71.7245C83.787 72.0645 83.9905 72.3636 84.2732 72.5733C84.5559 72.783 84.9012 72.891 85.253 72.8796C85.6048 72.8682 85.9424 72.7382 86.2109 72.5107C89.1481 69.7419 92.8599 67.9348 96.8509 67.3307C104.671 66.3907 107.941 69.6707 107.941 69.6707L121.121 43.8807Z" fill="#F56132"/>
<path d="M85.2007 73.9106C84.6557 73.907 84.1263 73.7282 83.6907 73.4006C83.2082 73.0629 82.8604 72.5659 82.7086 71.9969C82.5567 71.428 82.6106 70.8237 82.8607 70.2906C85.9407 63.3706 91.1407 53.4206 100.641 46.9506C103.622 44.8513 107.015 43.4091 110.596 42.7195C114.177 42.03 117.863 42.1087 121.411 42.9506C121.55 42.9931 121.679 43.0658 121.788 43.1634C121.896 43.261 121.982 43.3812 122.04 43.5156C122.097 43.65 122.124 43.7953 122.119 43.9413C122.114 44.0873 122.077 44.2304 122.011 44.3606L108.831 70.1506C108.759 70.293 108.655 70.4164 108.526 70.5103C108.397 70.6042 108.248 70.666 108.091 70.6906C107.935 70.7135 107.775 70.6992 107.626 70.6488C107.476 70.5984 107.341 70.5133 107.231 70.4006C107.231 70.4006 104.131 67.4906 96.9707 68.4006C93.1793 68.9638 89.655 70.6858 86.8807 73.3306C86.4088 73.7199 85.8123 73.9259 85.2007 73.9106ZM115.761 44.2606C110.761 44.2603 105.88 45.7772 101.761 48.6106C92.6907 54.7806 87.6707 64.4106 84.6807 71.1006C84.6248 71.2193 84.6133 71.3542 84.6481 71.4807C84.6829 71.6072 84.7619 71.7171 84.8707 71.7906C84.9642 71.8742 85.0852 71.9204 85.2107 71.9204C85.3361 71.9204 85.4572 71.8742 85.5507 71.7906C88.6273 68.8714 92.5333 66.9779 96.7307 66.3706C102.511 65.6706 105.981 67.1806 107.581 68.1906L119.641 44.6106C118.36 44.3811 117.062 44.264 115.761 44.2606Z" fill="#093F68"/>
<path d="M149.701 64.7505C151.483 67.7588 152.612 71.1084 153.015 74.5816C153.418 78.0548 153.086 81.5739 152.041 84.9105C149.141 94.6705 142.581 102.17 135.501 108.48C135.237 108.722 134.899 108.864 134.543 108.885C134.187 108.905 133.834 108.802 133.545 108.593C133.256 108.384 133.048 108.081 132.956 107.737C132.864 107.392 132.894 107.026 133.041 106.7C134.786 103.065 135.376 98.9816 134.731 95.0005C133.251 87.2605 129.141 85.1405 129.141 85.1405L149.701 64.7505Z" fill="#F56132"/>
<path d="M134.491 109.91C133.943 109.905 133.411 109.727 132.971 109.4C132.495 109.064 132.152 108.572 132.001 108.01C131.849 107.448 131.899 106.85 132.141 106.32C133.816 102.873 134.385 98.9931 133.771 95.2103C132.421 88.1203 128.771 86.0703 128.701 86.0503C128.561 85.9775 128.44 85.8726 128.348 85.7442C128.257 85.6158 128.197 85.4675 128.173 85.3115C128.15 85.1554 128.164 84.996 128.214 84.8464C128.264 84.6967 128.348 84.561 128.461 84.4503L149.021 64.0603C149.125 63.9561 149.25 63.8761 149.388 63.826C149.527 63.7759 149.674 63.7568 149.821 63.7703C149.966 63.7842 150.107 63.8299 150.234 63.9042C150.36 63.9785 150.468 64.0796 150.551 64.2003C152.423 67.3274 153.611 70.8158 154.037 74.4355C154.463 78.0553 154.116 81.7242 153.021 85.2003C149.751 96.2003 141.851 104.2 136.191 109.2C135.733 109.642 135.126 109.896 134.491 109.91ZM130.711 85.0403C132.151 86.2603 134.641 89.1103 135.711 94.8303C136.4 99.0148 135.782 103.31 133.941 107.13C133.884 107.242 133.871 107.37 133.905 107.49C133.938 107.611 134.015 107.714 134.121 107.78C134.219 107.866 134.345 107.913 134.476 107.913C134.606 107.913 134.732 107.866 134.831 107.78C140.301 102.9 147.941 95.1903 151.071 84.6803C152.924 78.6082 152.358 72.0547 149.491 66.3903L130.711 85.0403Z" fill="#093F68"/>
<path d="M161.301 54.4105C149.691 70.3005 138.491 80.2205 127.781 86.3505L107.221 71.3505C109.821 59.3505 115.861 45.6005 127.471 29.7205C131.652 23.9519 136.64 18.8129 142.281 14.4605C158.571 1.96051 174.381 1.02051 174.381 1.02051C174.381 1.02051 178.301 16.3705 171.331 35.6905C168.895 42.3758 165.517 48.6793 161.301 54.4105Z" fill="#FFBC0E"/>
<path d="M127.781 87.3503C127.568 87.3482 127.361 87.2781 127.191 87.1503L106.631 72.1503C106.477 72.0379 106.359 71.8842 106.29 71.7071C106.221 71.53 106.204 71.3368 106.241 71.1503C109.151 57.7003 115.831 43.9603 126.661 29.1503C130.898 23.3086 135.95 18.1027 141.661 13.6903C158.011 1.14031 173.661 0.0803052 174.311 0.0503052C174.538 0.0431198 174.76 0.113483 174.942 0.249806C175.124 0.386129 175.254 0.580285 175.311 0.800305C175.471 1.43031 179.221 16.6603 172.231 36.0503C169.768 42.8379 166.343 49.2366 162.061 55.0503C151.241 69.8703 140.171 80.4103 128.241 87.2603C128.097 87.3263 127.939 87.3572 127.781 87.3503ZM108.341 70.9003L127.841 85.1503C139.311 78.4303 150.001 68.1503 160.491 53.8203C164.654 48.1561 167.988 41.9266 170.391 35.3203C174.329 24.707 175.432 13.2501 173.591 2.08031C162.391 3.72276 151.811 8.2511 142.891 15.2203C137.325 19.519 132.402 24.5902 128.271 30.2803C117.781 44.6303 111.261 57.9303 108.341 70.9003Z" fill="#093F68"/>
<path d="M123.711 95.8603L99.3906 78.0903L107.241 71.3403L127.761 86.3303L123.711 95.8603Z" fill="#093F68"/>
<path d="M123.721 96.8607C123.509 96.8615 123.302 96.7949 123.131 96.6707L98.8009 78.9007C98.6828 78.8079 98.5853 78.6915 98.5147 78.5589C98.4441 78.4264 98.402 78.2805 98.3909 78.1307C98.385 77.9796 98.4134 77.829 98.474 77.6905C98.5346 77.5519 98.6259 77.4289 98.7409 77.3307L106.591 70.5807C106.768 70.4387 106.989 70.3613 107.216 70.3613C107.443 70.3613 107.664 70.4387 107.841 70.5807L128.351 85.5807C128.533 85.714 128.665 85.9052 128.725 86.1231C128.785 86.341 128.77 86.5728 128.681 86.7807L124.681 96.3107C124.621 96.4494 124.531 96.5727 124.416 96.6714C124.302 96.7702 124.167 96.8417 124.021 96.8807C123.921 96.8926 123.819 96.8858 123.721 96.8607ZM101.001 78.0207L123.291 94.3107L126.531 86.6707L107.301 72.6107L101.001 78.0207Z" fill="#093F68"/>
<path d="M145.441 51.4904C151.455 51.4904 156.331 46.6148 156.331 40.6004C156.331 34.5861 151.455 29.7104 145.441 29.7104C139.426 29.7104 134.551 34.5861 134.551 40.6004C134.551 46.6148 139.426 51.4904 145.441 51.4904Z" fill="#9F4900"/>
<path d="M145.421 52.4904C142.749 52.4851 140.158 51.5804 138.063 49.9221C135.969 48.2638 134.494 45.9485 133.876 43.3496C133.259 40.7506 133.534 38.0193 134.659 35.5961C135.783 33.1729 137.691 31.1989 140.074 29.9923C142.457 28.7858 145.178 28.417 147.796 28.9454C150.415 29.4738 152.779 30.8687 154.508 32.9051C156.237 34.9415 157.23 37.5008 157.326 40.1704C157.423 42.84 156.618 45.4644 155.041 47.6204C153.936 49.1346 152.488 50.3654 150.816 51.2119C149.144 52.0584 147.295 52.4966 145.421 52.4904ZM145.491 30.7504C143.139 30.7492 140.864 31.5868 139.074 33.1128C137.285 34.6388 136.099 36.753 135.729 39.0755C135.358 41.3979 135.829 43.7762 137.055 45.7828C138.282 47.7894 140.184 49.2928 142.419 50.0226C144.655 50.7525 147.077 50.6609 149.252 49.7644C151.426 48.868 153.209 47.2254 154.28 45.1319C155.352 43.0384 155.641 40.6314 155.097 38.3436C154.553 36.0557 153.21 34.037 151.311 32.6504C149.62 31.4175 147.583 30.7523 145.491 30.7504Z" fill="#093F68"/>
<path d="M171.331 35.6607L142.331 14.4307C158.621 1.93072 174.431 0.990723 174.431 0.990723C174.431 0.990723 178.301 16.3407 171.331 35.6607Z" fill="#F56132"/>
<path d="M171.331 36.6605C171.119 36.6574 170.914 36.5912 170.741 36.4705L141.691 15.2405C141.566 15.1474 141.466 15.0266 141.396 14.8877C141.327 14.7489 141.291 14.5957 141.291 14.4405C141.291 14.2853 141.327 14.1321 141.396 13.9933C141.466 13.8544 141.566 13.7336 141.691 13.6405C158.041 1.0905 173.691 0.0305005 174.341 0.000500491C174.568 -0.00668492 174.79 0.0636782 174.972 0.200002C175.154 0.336325 175.284 0.53048 175.341 0.750501C175.501 1.3805 179.251 16.6105 172.261 36.0005C172.209 36.1463 172.124 36.2781 172.013 36.3857C171.902 36.4933 171.768 36.5737 171.621 36.6205C171.526 36.648 171.429 36.6615 171.331 36.6605ZM143.961 14.4205L170.831 34.0605C174.409 23.7918 175.358 12.7903 173.591 2.0605C162.836 3.6382 152.648 7.88781 143.961 14.4205Z" fill="#093F68"/>
<path d="M135.056 58.6156C135.792 57.6079 135.574 56.1953 134.569 55.4604C133.563 54.7256 132.151 54.9468 131.415 55.9545L107.453 88.7419C106.716 89.7497 106.935 91.1623 107.94 91.8972C108.946 92.632 110.358 92.4108 111.094 91.403L135.056 58.6156Z" fill="#FFBC0E"/>
<path d="M109.281 93.3303C108.68 93.3276 108.092 93.1592 107.581 92.8436C107.071 92.528 106.657 92.0774 106.386 91.5417C106.115 91.0059 105.997 90.4058 106.046 89.8073C106.094 89.2089 106.307 88.6355 106.661 88.1503L130.661 55.3603C130.908 55.0119 131.223 54.7171 131.588 54.4937C131.952 54.2703 132.358 54.1229 132.781 54.0603C133.418 53.9578 134.072 54.0474 134.658 54.3179C135.244 54.5883 135.737 55.0272 136.072 55.5787C136.408 56.1302 136.572 56.7691 136.543 57.4142C136.515 58.0592 136.294 58.681 135.911 59.2003L111.911 91.9903C111.4 92.6881 110.634 93.1555 109.781 93.2903C109.615 93.3131 109.448 93.3265 109.281 93.3303ZM133.281 56.0203H133.081C132.917 56.0472 132.76 56.1061 132.62 56.1936C132.479 56.2811 132.357 56.3955 132.261 56.5303L108.261 89.3203C108.163 89.4528 108.093 89.6033 108.054 89.763C108.014 89.9228 108.007 90.0887 108.032 90.2513C108.057 90.4139 108.114 90.5699 108.2 90.7105C108.285 90.851 108.398 90.9733 108.531 91.0703C108.8 91.2676 109.136 91.35 109.466 91.2994C109.796 91.2488 110.093 91.0693 110.291 90.8003L134.291 58.0103C134.43 57.8246 134.515 57.6037 134.536 57.3725C134.556 57.1413 134.512 56.9089 134.409 56.7013C134.305 56.4936 134.145 56.319 133.948 56.197C133.75 56.0749 133.523 56.0103 133.291 56.0103L133.281 56.0203Z" fill="#093F68"/>
<path d="M150.211 47.6607C149.995 47.6601 149.785 47.5898 149.613 47.4604C149.441 47.3309 149.315 47.1492 149.254 46.9423C149.193 46.7353 149.201 46.5143 149.276 46.3122C149.351 46.1101 149.49 45.9377 149.671 45.8206C150.702 44.9413 151.468 43.7915 151.881 42.5006C153.051 39.3406 150.631 36.6306 150.531 36.5006C150.35 36.3057 150.255 36.0471 150.265 35.7818C150.276 35.5164 150.391 35.266 150.586 35.0856C150.781 34.9053 151.039 34.8098 151.305 34.8201C151.57 34.8304 151.82 34.9457 152.001 35.1406C152.141 35.2906 155.361 38.8406 153.751 43.1406C153.204 44.8421 152.159 46.3402 150.751 47.4407C150.597 47.566 150.409 47.6426 150.211 47.6607Z" fill="white"/>
<path d="M146.371 49.4804C146.106 49.4963 145.845 49.4062 145.646 49.2299C145.447 49.0536 145.327 48.8056 145.311 48.5403C145.295 48.2751 145.385 48.0145 145.561 47.8157C145.738 47.6169 145.986 47.4963 146.251 47.4804C146.9 47.3657 147.534 47.1778 148.141 46.9203C148.381 46.8303 148.646 46.8356 148.882 46.9352C149.118 47.0349 149.306 47.2212 149.409 47.4559C149.511 47.6905 149.52 47.9556 149.433 48.1965C149.346 48.4373 149.17 48.6355 148.941 48.7503C148.159 49.0859 147.34 49.3276 146.501 49.4703L146.371 49.4804Z" fill="white"/>
<path d="M34.2608 66.8404C34.0435 66.8442 33.8308 66.7771 33.6549 66.6492C33.4791 66.5213 33.3498 66.3397 33.2865 66.1317C33.2232 65.9237 33.2294 65.7008 33.3042 65.4966C33.3789 65.2925 33.5182 65.1183 33.7008 65.0004L38.3408 61.9304C38.4504 61.8571 38.5733 61.8063 38.7026 61.7807C38.8318 61.7552 38.9649 61.7554 39.094 61.7814C39.2232 61.8074 39.346 61.8587 39.4552 61.9323C39.5645 62.0059 39.6582 62.1004 39.7308 62.2104C39.8756 62.4308 39.9273 62.6995 39.8749 62.958C39.8224 63.2165 39.67 63.4437 39.4508 63.5904L34.8108 66.6704C34.6481 66.7797 34.4569 66.8388 34.2608 66.8404Z" fill="#DFEAEF"/>
<path d="M36.7408 70.0506C36.577 70.0508 36.4157 70.0109 36.2709 69.9341C36.1262 69.8574 36.0026 69.7463 35.9108 69.6106C35.8376 69.5011 35.7867 69.3781 35.7612 69.2489C35.7356 69.1196 35.7359 68.9866 35.7619 68.8574C35.7879 68.7282 35.8392 68.6055 35.9128 68.4962C35.9864 68.3869 36.0809 68.2932 36.1908 68.2206L40.3408 65.4606C40.5623 65.3134 40.8331 65.2602 41.0938 65.3127C41.3545 65.3652 41.5836 65.5191 41.7308 65.7406C41.878 65.9621 41.9312 66.2329 41.8787 66.4936C41.8262 66.7543 41.6723 66.9834 41.4508 67.1306L37.3008 69.8906C37.1342 69.9983 36.9392 70.054 36.7408 70.0506Z" fill="#DFEAEF"/>
<path d="M39.0308 73.2806C38.8172 73.2789 38.6097 73.2089 38.4387 73.0807C38.2678 72.9526 38.1424 72.773 38.0809 72.5684C38.0194 72.3638 38.025 72.1449 38.097 71.9437C38.169 71.7426 38.3035 71.5697 38.4809 71.4506L42.6309 68.6906C42.7395 68.6088 42.8637 68.5501 42.9959 68.518C43.128 68.4859 43.2654 68.4811 43.3994 68.5039C43.5335 68.5266 43.6615 68.5765 43.7756 68.6505C43.8898 68.7244 43.9876 68.8208 44.0632 68.9339C44.1388 69.0469 44.1906 69.1742 44.2153 69.3079C44.24 69.4417 44.2372 69.579 44.207 69.7116C44.1768 69.8442 44.1199 69.9693 44.0398 70.0791C43.9596 70.189 43.8579 70.2814 43.7409 70.3506L39.5909 73.1106C39.4253 73.2218 39.2303 73.281 39.0308 73.2806Z" fill="#DFEAEF"/>
<path d="M56.2209 56.2405C56.0061 56.2378 55.7979 56.166 55.6271 56.0358C55.4563 55.9055 55.3319 55.7237 55.2725 55.5173C55.213 55.3109 55.2216 55.0908 55.297 54.8897C55.3723 54.6885 55.5105 54.517 55.6909 54.4005L86.4909 34.8705C86.6019 34.8002 86.7256 34.7525 86.855 34.73C86.9844 34.7076 87.117 34.7109 87.2451 34.7396C87.3733 34.7684 87.4945 34.8222 87.6019 34.8978C87.7093 34.9734 87.8007 35.0695 87.8709 35.1805C87.9412 35.2914 87.9889 35.4151 88.0113 35.5446C88.0338 35.674 88.0305 35.8065 88.0017 35.9347C87.9729 36.0628 87.9192 36.184 87.8436 36.2914C87.7679 36.3988 87.6719 36.4902 87.5609 36.5605L56.7609 56.0905C56.5989 56.1909 56.4115 56.243 56.2209 56.2405Z" fill="#DFEAEF"/>
<path d="M105.491 135.351C105.421 135.361 105.35 135.361 105.281 135.351C105.022 135.293 104.797 135.136 104.655 134.913C104.512 134.69 104.464 134.419 104.521 134.161C106.031 127.161 99.4305 123.211 99.1505 123.041C98.9329 122.902 98.7771 122.685 98.7157 122.435C98.6544 122.184 98.6922 121.92 98.8212 121.696C98.9503 121.473 99.1607 121.308 99.4084 121.236C99.6561 121.165 99.922 121.191 100.151 121.311C100.231 121.361 108.291 126.161 106.461 134.591C106.407 134.807 106.282 135 106.107 135.138C105.931 135.276 105.714 135.351 105.491 135.351Z" fill="#093F68"/>
</svg>
