<svg width="18" height="18" viewBox="0 0 18 18" fill="none" xmlns="http://www.w3.org/2000/svg">
<path d="M5.24883 7.59375V10.4062C5.24883 10.8738 4.87266 11.25 4.40508 11.25H0.84375C0.376172 11.25 0 10.8738 0 10.4062V7.59375C0 7.12617 0.376172 6.75 0.84375 6.75H4.40508C4.87266 6.75 5.24883 7.12617 5.24883 7.59375ZM0 13.2188V16.0312C0 16.4988 0.376172 16.875 0.84375 16.875H4.40508C4.87266 16.875 5.24883 16.4988 5.24883 16.0312V13.2188C5.24883 12.7512 4.87266 12.375 4.40508 12.375H0.84375C0.376172 12.375 0 12.7512 0 13.2188ZM4.40508 1.125H0.84375C0.376172 1.125 0 1.50117 0 1.96875V4.78125C0 5.24883 0.376172 5.625 0.84375 5.625H4.40508C4.87266 5.625 5.24883 5.24883 5.24883 4.78125V1.96875C5.24883 1.50117 4.87266 1.125 4.40508 1.125ZM7.21758 16.875H17.1562C17.6238 16.875 18 16.4988 18 16.0312V13.2188C18 12.7512 17.6238 12.375 17.1562 12.375H7.21758C6.75 12.375 6.37383 12.7512 6.37383 13.2188V16.0312C6.37383 16.4988 6.75 16.875 7.21758 16.875ZM6.37383 1.96875V4.78125C6.37383 5.24883 6.75 5.625 7.21758 5.625H17.1562C17.6238 5.625 18 5.24883 18 4.78125V1.96875C18 1.50117 17.6238 1.125 17.1562 1.125H7.21758C6.75 1.125 6.37383 1.50117 6.37383 1.96875ZM7.21758 11.25H17.1562C17.6238 11.25 18 10.8738 18 10.4062V7.59375C18 7.12617 17.6238 6.75 17.1562 6.75H7.21758C6.75 6.75 6.37383 7.12617 6.37383 7.59375V10.4062C6.37383 10.8738 6.75 11.25 7.21758 11.25Z" fill="#FFBC0E"/>
</svg>
