<svg width="18" height="18" viewBox="0 0 18 18" fill="none" xmlns="http://www.w3.org/2000/svg">
<g clip-path="url(#clip0_166_1538)">
<path d="M9 0.28125C4.02823 0.28125 0 4.18359 0 9C0 13.8164 4.02823 17.7188 9 17.7188C13.9718 17.7188 18 13.8164 18 9C18 4.18359 13.9718 0.28125 9 0.28125ZM9 3.65625C10.7637 3.65625 12.1935 5.04141 12.1935 6.75C12.1935 8.45859 10.7637 9.84375 9 9.84375C7.23629 9.84375 5.80645 8.45859 5.80645 6.75C5.80645 5.04141 7.23629 3.65625 9 3.65625ZM9 15.75C6.86976 15.75 4.96089 14.8148 3.68347 13.3523C4.36573 12.1078 5.70121 11.25 7.25806 11.25C7.34516 11.25 7.43226 11.2641 7.51573 11.2887C7.9875 11.4363 8.48105 11.5312 9 11.5312C9.51895 11.5312 10.0161 11.4363 10.4843 11.2887C10.5677 11.2641 10.6548 11.25 10.7419 11.25C12.2988 11.25 13.6343 12.1078 14.3165 13.3523C13.0391 14.8148 11.1302 15.75 9 15.75Z" fill="#FFBC0E"/>
</g>
<defs>
<clipPath id="clip0_166_1538">
<rect width="18" height="18" fill="white"/>
</clipPath>
</defs>
</svg>
