<?xml version="1.0" encoding="UTF-8"?>
<svg id="_圖層_1" data-name="圖層 1" xmlns="http://www.w3.org/2000/svg" xmlns:xlink="http://www.w3.org/1999/xlink" viewBox="0 0 429.17 386.57">
  <defs>
    <style>
      .cls-1 {
        fill: #be8032;
      }

      .cls-1, .cls-2, .cls-3, .cls-4, .cls-5, .cls-6, .cls-7, .cls-8, .cls-9, .cls-10, .cls-11, .cls-12 {
        stroke-width: 0px;
      }

      .cls-13 {
        clip-path: url(#clippath);
      }

      .cls-2 {
        fill: none;
      }

      .cls-3 {
        fill: #6a4f23;
      }

      .cls-4 {
        fill: #4c4d2c;
      }

      .cls-14 {
        clip-path: url(#clippath-1);
      }

      .cls-5 {
        fill: #a95f23;
      }

      .cls-6 {
        fill: #cf9844;
      }

      .cls-7 {
        fill: #865223;
      }

      .cls-8 {
        fill: #b56f28;
      }

      .cls-9 {
        fill: #ab6522;
      }

      .cls-10 {
        fill: #fff;
      }

      .cls-11 {
        fill: #1e483a;
      }

      .cls-12 {
        fill: #7d5023;
      }
    </style>
    <clipPath id="clippath">
      <path class="cls-2" d="M272.92,187.29l-78.07,78.07c-2.51,2.51-2.51,6.59,0,9.1l19.45,19.45c2.51,2.51,6.59,2.51,9.1,0l102.07-102.07c2.51-2.51,2.51-6.59,0-9.1l-77.45-77.45c-2.51-2.51-6.59-2.51-9.1,0l-19.45,19.45c-2.51,2.51-2.51,6.59,0,9.1l53.46,53.46Z"/>
    </clipPath>
    <clipPath id="clippath-1">
      <path class="cls-2" d="M180.22,108.48l78.04-78.04c2.53-2.53,2.53-6.63,0-9.15L238.87,1.9c-2.53-2.53-6.63-2.53-9.15,0l-102.01,102.01c-2.53,2.53-2.53,6.63,0,9.15l77.4,77.4c2.53,2.53,6.63,2.53,9.15,0l19.39-19.39c2.53-2.53,2.53-6.63,0-9.15l-53.43-53.43Z"/>
    </clipPath>
  </defs>
  <g>
    <path class="cls-11" d="M272.92,187.29l-78.07,78.07c-2.51,2.51-2.51,6.59,0,9.1l19.45,19.45c2.51,2.51,6.59,2.51,9.1,0l102.07-102.07c2.51-2.51,2.51-6.59,0-9.1l-77.45-77.45c-2.51-2.51-6.59-2.51-9.1,0l-19.45,19.45c-2.51,2.51-2.51,6.59,0,9.1l53.46,53.46Z"/>
    <g class="cls-13">
      <circle class="cls-4" cx="219.1" cy="158.53" r="119.4"/>
      <circle class="cls-3" cx="219.1" cy="158.53" r="91.84"/>
      <circle class="cls-12" cx="219.1" cy="158.53" r="72.98"/>
      <circle class="cls-7" cx="219.1" cy="158.53" r="54.62"/>
    </g>
    <path class="cls-6" d="M180.22,108.48l78.04-78.04c2.53-2.53,2.53-6.63,0-9.15L238.87,1.9c-2.53-2.53-6.63-2.53-9.15,0l-102.01,102.01c-2.53,2.53-2.53,6.63,0,9.15l77.4,77.4c2.53,2.53,6.63,2.53,9.15,0l19.39-19.39c2.53-2.53,2.53-6.63,0-9.15l-53.43-53.43Z"/>
    <g class="cls-14">
      <circle class="cls-1" cx="234.29" cy="137.49" r="119.4"/>
      <circle class="cls-8" cx="234.29" cy="137.49" r="91.84"/>
      <circle class="cls-9" cx="234.29" cy="137.49" r="72.98"/>
      <circle class="cls-5" cx="234.29" cy="137.49" r="54.62"/>
    </g>
  </g>
  <g>
    <g>
      <path class="cls-11" d="M159.48,369.38c0,2.36-.56,4.42-1.67,6.2-1.11,1.77-2.61,3.21-4.48,4.31-1.72,1.01-3.69,1.77-5.91,2.28-2.22.52-4.68.77-7.39.77-1.47,0-2.98-.05-4.55-.14s-2.48-.15-2.73-.17l-.27-4.94c.32.05,1.21.13,2.68.26,1.46.13,3.19.19,5.18.19,1.21,0,2.78-.16,4.7-.48,1.92-.32,3.4-.73,4.43-1.24,1.35-.66,2.38-1.46,3.11-2.4.72-.94,1.08-2.13,1.08-3.57,0-1.53-.36-2.83-1.08-3.89-.72-1.06-1.92-2.09-3.59-3.07-1.08-.64-2.47-1.36-4.19-2.16s-3.26-1.62-4.63-2.47c-2.33-1.42-4-2.97-4.99-4.65-1-1.68-1.49-3.55-1.49-5.61s.45-3.93,1.36-5.47c.91-1.54,2.08-2.87,3.52-3.96,1.47-1.1,3.26-1.92,5.38-2.47s4.47-.82,7.06-.82c1.42,0,2.86.04,4.31.12s2.29.13,2.49.15l.48,4.98c-.21-.02-1.04-.1-2.51-.24-1.46-.14-3.27-.21-5.42-.21-1.28,0-2.6.14-3.96.43-1.36.29-2.56.73-3.59,1.32-.92.53-1.69,1.26-2.33,2.2-.64.94-.96,2.04-.96,3.29,0,1.12.34,2.2,1.01,3.24.67,1.04,1.94,2.11,3.79,3.21.94.57,2.18,1.23,3.72,1.97s3.06,1.55,4.55,2.42c2.29,1.35,4.01,2.9,5.16,4.65s1.73,3.75,1.73,5.99Z"/>
      <path class="cls-11" d="M210.75,382.32h-5.66c.02-1.37.05-3.91.09-7.6.03-3.69.05-8.3.05-13.81-.34,0-2.38,0-6.11-.02-3.73-.01-6.53-.02-8.41-.02-2.27,0-4.98,0-8.15.02-3.17.01-4.89.02-5.16.02,0,6.36.02,11.18.05,14.45s.06,5.59.09,6.96h-5.66c.02-1.37.06-3.81.1-7.31s.07-9.41.07-17.74c0-2.52-.02-5.58-.05-9.2-.03-3.61-.07-7.52-.12-11.7h5.66c0,3.48-.02,6.89-.07,10.24-.05,3.35-.07,6.54-.07,9.56.27,0,1.77,0,4.48.02s5.67.02,8.87.02c2.47,0,5.44,0,8.92-.02,3.48-.01,5.33-.02,5.56-.02,0-3.02-.02-6.2-.07-9.54-.04-3.34-.07-6.76-.07-10.26h5.66c-.05,3.46-.09,7.45-.12,11.98-.04,4.53-.05,8.22-.05,11.08,0,6.73.02,11.88.07,15.46.05,3.58.08,6.06.1,7.43Z"/>
      <path class="cls-11" d="M264.93,380.48l-5.34,2.76c-.09-.25-.83-1.96-2.2-5.11-1.37-3.16-3.18-7.22-5.43-12.18h-20.32c-2.41,5.33-4.27,9.46-5.58,12.39-1.31,2.93-2.03,4.56-2.17,4.91l-4.6-2.49c.59-1.19,3.05-6.43,7.36-15.73,4.31-9.3,8.79-19.07,13.44-29.31h4.46c4.58,10.25,9.07,20.17,13.49,29.78,4.42,9.61,6.71,14.6,6.9,14.99ZM250.02,361.56c-1.21-2.79-2.49-5.71-3.84-8.76s-2.76-6.23-4.24-9.55l-.14.03c-1.15,2.51-2.54,5.61-4.16,9.27-1.62,3.67-2.97,6.67-4.03,9l-.02.04h16.44v-.04Z"/>
      <path class="cls-11" d="M308.78,379.57l-4.29,3.53c-.5-.53-2.29-2.51-5.35-5.96-3.06-3.45-7.78-8.82-14.16-16.12l.03-.31c.87-.23,2.03-.73,3.47-1.49,1.44-.77,2.66-1.6,3.64-2.49.85-.78,1.58-1.74,2.21-2.88.63-1.15.94-2.68.94-4.6,0-1.76-.46-3.28-1.39-4.55-.93-1.27-2.2-2.2-3.83-2.8-1.33-.5-2.72-.81-4.19-.91-1.46-.1-2.81-.15-4.05-.15-.82,0-1.45,0-1.89.02-.44.01-.75.02-.96.02-.05,4.35-.08,8.19-.09,11.5-.01,3.32-.02,5.67-.02,7.04,0,3.14.02,7.4.05,12.78s.06,8.76.09,10.13h-5.66c.02-1.37.06-4.03.1-7.98.05-3.95.07-8.86.07-14.74v-6.35c0-3.09-.06-8.71-.17-16.88.23,0,1.37-.02,3.43-.07,2.06-.05,3.95-.07,5.69-.07,1.99,0,3.92.11,5.79.34,1.87.23,3.7.72,5.48,1.47,2.26.96,4.06,2.37,5.38,4.23,1.33,1.86,1.99,4.05,1.99,6.57,0,3.25-1,5.95-3,8.11s-3.89,3.77-5.67,4.82v.17c3.14,3.66,6.57,7.44,10.32,11.34s5.75,5.99,6.03,6.29Z"/>
      <path class="cls-11" d="M323.61,382.32h-5.66c.02-1.37.06-3.82.1-7.34.05-3.52.07-8.58.07-15.17,0-2.61-.01-6.03-.03-10.26-.02-4.23-.07-8.62-.14-13.18h5.66c-.05,3.27-.09,7.07-.12,11.41s-.05,7.88-.05,10.62c0,6.96.02,12.34.07,16.15.04,3.81.08,6.4.1,7.77Z"/>
      <path class="cls-11" d="M379.21,336.37c-.05,3.59-.09,7.7-.12,12.32s-.05,7.95-.05,9.98c0,6.5.02,11.66.07,15.49.05,3.83.07,5.88.07,6.13l-4.56,2.23c-6.91-9.33-13.37-17.76-19.37-25.27-6.01-7.52-9.48-11.86-10.42-13.02l-.07.04c0,6.13.04,13.66.12,22.59.08,8.93.13,14.08.16,15.46h-5.35c.02-.57.06-2.61.1-6.11s.07-8.37.07-14.62c0-2.49-.01-5.8-.03-9.94-.02-4.13-.07-8.5-.14-13.12l5.22-2.47c.41.53,3.92,4.97,10.52,13.34,6.6,8.37,12.82,16.14,18.65,23.32l.07-.03c0-3.52-.05-9.45-.14-17.78-.09-8.33-.14-14.51-.14-18.54h5.35Z"/>
      <path class="cls-11" d="M429.17,358.71c-.05,1.65-.09,3.57-.14,5.78-.05,2.21-.07,4.03-.07,5.47,0,2.31.02,4.89.07,7.74s.07,4.43.07,4.75c-.21.02-.89.07-2.06.15-1.17.08-2.3.12-3.4.12-5.45,0-10.25-.58-14.43-1.75-4.17-1.17-7.79-3.2-10.86-6.11-1.9-1.79-3.43-4-4.58-6.64s-1.73-5.66-1.73-9.04c0-4.16,1.1-7.89,3.31-11.17,2.21-3.28,5.24-5.93,9.11-7.95,2.63-1.37,5.62-2.41,8.97-3.11,3.35-.7,6.85-1.05,10.48-1.05.57,0,1.1,0,1.6.02s.93.02,1.32.02l.41,4.94c-.09,0-.46,0-1.1-.02-.64,0-1.16-.02-1.55-.02-3.5,0-6.71.3-9.62.89s-5.45,1.46-7.63,2.61c-2.96,1.56-5.27,3.68-6.96,6.36s-2.52,5.53-2.52,8.55c0,3.82.88,6.99,2.63,9.5,1.75,2.51,4.01,4.47,6.79,5.89,2.47,1.26,5.09,2.15,7.85,2.66,2.76.51,5.61.77,8.54.77,0-.37-.01-2.15-.03-5.35-.02-3.2-.07-7.88-.14-14.04h5.66Z"/>
    </g>
    <path class="cls-11" d="M49.97,363.48c1.08,0,1.7.96,1.7,2.15s-.62,2.09-1.7,2.09H1.64c-1.02,0-1.64-.85-1.64-2.09s.62-2.15,1.64-2.15h11.83v-14.49H3.79c-1.02,0-1.64-.85-1.64-2.09s.57-2.09,1.58-2.09h9.73v-8.94c0-1.19.85-1.75,2.21-1.75s2.21.57,2.21,1.75v8.94h15.45v-8.88c0-1.19.91-1.75,2.21-1.75,1.42,0,2.21.57,2.21,1.75v8.88h9.9c1.02,0,1.7.91,1.7,2.09s-.62,2.09-1.64,2.09h-9.96v14.49h12.22ZM20.2,372.31c0,.45-.17.96-.57,1.47-3.79,4.64-9.51,8.94-15.11,11.55-.34.17-.74.28-1.13.28-.79,0-1.58-.4-2.04-1.25-.23-.4-.34-.85-.34-1.24,0-.74.4-1.47,1.25-1.87,5.38-2.43,10.47-5.94,13.75-10.3.45-.57,1.08-.85,1.7-.85.51,0,1.02.17,1.47.51.68.4,1.02,1.02,1.02,1.7ZM33.33,348.99h-15.45v14.49h15.45v-14.49ZM33.39,369.99c.62,0,1.3.28,1.81.91,3.68,4.58,8.72,7.92,14.21,10.24.85.4,1.3,1.13,1.3,1.92,0,.4-.11.79-.28,1.19-.51.91-1.19,1.41-2.04,1.41-.34,0-.74-.11-1.13-.28-6-2.66-11.49-6.79-15.68-11.77-.45-.45-.62-.96-.62-1.47,0-.68.4-1.3,1.13-1.75.4-.28.85-.4,1.3-.4Z"/>
    <path class="cls-11" d="M57.44,340.22c-.45-.28-.68-.74-.68-1.19s.17-.85.45-1.25c.4-.45.91-.68,1.42-.68.28,0,.62.11.85.28.45.34.91.62,1.36,1.02,1.47-1.58,2.77-3.45,3.74-4.98.28-.45.74-.74,1.3-.74.34,0,.68.11,1.08.34.57.28.96.91.96,1.42,0,.23-.06.4-.17.62-1.19,1.75-2.77,3.62-4.47,5.32.85.74,1.7,1.53,2.49,2.32,1.25-1.47,2.43-2.94,3.51-4.36.34-.45.85-.68,1.36-.68.34,0,.74.11,1.08.34.51.28.85.85.85,1.42,0,.28-.11.57-.28.79-1.98,2.49-4.92,5.6-7.7,8.15,1.92-.17,3.85-.4,5.72-.68.45-.74.79-1.47,1.13-2.21.28-.57.74-.85,1.3-.85.23,0,.51.06.74.17.62.28.96.74.96,1.19,0,.23-.06.4-.11.62-2.6,5.6-6.9,11.09-13.64,14.66-.34.17-.68.28-1.02.28-.62,0-1.13-.28-1.47-.91-.17-.34-.28-.68-.28-1.02,0-.57.28-1.08.91-1.42,3.79-1.87,6.96-4.41,9.45-7.53-3.62.74-7.41,1.3-10.75,1.58h-.11c-.85,0-1.53-.45-1.58-1.53v-.28c0-.91.57-1.53,1.3-1.53.85-.06,1.75-.11,2.66-.17,1.3-1.13,2.55-2.32,3.74-3.57-1.98-1.98-4.3-3.74-6.06-4.98Z"/>
    <path class="cls-11" d="M75.66,364.1c-.79,0-1.13-.51-1.13-1.25,0-.17.06-.34.11-.51-4.58,2.43-9.85,4.64-16.24,6.28-.17.06-.4.06-.57.06-.85,0-1.47-.51-1.75-1.53-.06-.23-.06-.4-.06-.57,0-.85.51-1.53,1.47-1.7,8.6-1.81,15.11-4.53,20.88-8.43,1.02-.68,2.26-1.08,3.51-1.08s2.38.34,3.4,1.13c5.66,4.36,13.64,6.73,21.45,7.92,1.13.17,1.64.79,1.64,1.7,0,.17,0,.34-.06.51-.17.96-.91,1.58-1.87,1.58-.17,0-.4,0-.57-.06-6-1.36-11.66-3-16.92-5.72.06.11.06.28.06.4,0,.74-.4,1.25-1.08,1.25h-12.28Z"/>
    <path class="cls-11" d="M69.83,377.17v4.58c3.91-.45,7.81-.96,10.98-1.53.28-.06.51-.06.74-.06.74,0,1.19.28,1.41,1.13.06.17.06.34.06.51,0,.74-.45,1.3-1.41,1.47-6.4,1.36-14.88,2.32-21.45,2.89h-.28c-.96,0-1.64-.51-1.75-1.75v-.28c0-1.08.68-1.53,1.58-1.58,1.92-.06,4.02-.23,6.17-.45v-12.73c0-2.21,1.87-3.51,4.19-3.51h24.34c2.09,0,3.85,1.25,3.85,3.23v4.98c0,1.92-1.47,3.11-3.45,3.11h-9.56c1.64,1.47,3.51,2.6,5.55,3.45,3.57-1.58,6.73-3.74,9.11-5.66.4-.28.85-.51,1.36-.51.4,0,.79.17,1.19.57.4.45.62.91.62,1.36,0,.4-.17.79-.62,1.08-2.26,1.64-4.7,3.06-7.41,4.47,3.06.68,6.62.96,10.75,1.08,1.3.06,1.87.62,1.87,1.58,0,.11,0,.28-.06.4-.06,1.02-.68,1.58-1.98,1.58h-.23c-9.85-.4-18.73-2.72-24.85-9.4h-10.7Z"/>
    <path class="cls-10" d="M94.39,370.27v-.96c0-.91-.45-1.08-1.36-1.08h-21.73c-1.02,0-1.47.17-1.47,1.08v.96h24.56Z"/>
    <path class="cls-10" d="M93.04,374.8c.91,0,1.36-.23,1.36-1.19v-.96h-24.56v2.15h23.2Z"/>
    <path class="cls-11" d="M78.32,355.39c0,.96-.79,1.47-1.81,1.47s-1.64-.51-1.64-1.42v-16.98c0-2.38,1.08-3.34,3.74-3.34h2.15c.4-.62.68-1.19.91-1.7.28-.68.79-.96,1.7-.96.17,0,.4,0,.62.06.85.11,1.36.62,1.36,1.19,0,.17-.06.34-.17.57-.17.28-.34.57-.51.85h2.89c2.6,0,3.68.96,3.68,3.28v4.07c0,2.26-1.08,3.17-3.68,3.17h-9.23v1.92h12.28c.68,0,1.08.45,1.08,1.08,0,.74-.4,1.19-1.08,1.19h-12.28v2.04h12.34c.68,0,1.02.45,1.02,1.13s-.34,1.08-1.02,1.08h-12.34v1.3Z"/>
    <path class="cls-10" d="M87.38,361.61c-1.47-.85-2.94-1.75-4.36-2.83-.51-.34-.85-.51-1.19-.51-.4,0-.79.17-1.36.51-1.41.96-2.94,1.92-4.53,2.83h11.43Z"/>
    <path class="cls-10" d="M87.89,339.43v-1.02c0-.79-.45-1.02-1.3-1.02h-6.96c-.85,0-1.3.23-1.3,1.02v1.02h9.56Z"/>
    <path class="cls-10" d="M86.58,343.5c.85,0,1.3-.17,1.3-.96v-1.08h-9.56v2.04h8.26Z"/>
    <path class="cls-11" d="M105.2,334.11c2.15,0,3.34,1.19,3.34,2.66,0,.57-.17,1.19-.57,1.81-1.02,1.64-2.26,3.4-3.45,4.75-.23.28-.34.45-.34.68s.17.4.45.62c2.55,1.81,4.02,3.62,4.02,6.57,0,3.17-2.09,4.75-6,4.75-1.02,0-1.81,0-2.49-.17s-1.19-.79-1.19-1.7c0-.11,0-.23.06-.4.11-.85.79-1.36,1.53-1.36h.23c.4.06,1.02.11,1.47.11,1.98,0,2.55-.62,2.55-1.92,0-1.81-1.02-3.23-3.4-4.81-.62-.45-.96-.96-.96-1.58,0-.51.23-1.02.68-1.58,1.02-1.19,2.04-2.72,2.83-4.08.11-.23.17-.45.17-.62,0-.34-.28-.51-.74-.51h-4.41c-.85,0-1.3.28-1.3,1.25v19.41c0,.91-.85,1.42-1.81,1.42-1.08,0-1.87-.51-1.87-1.53v-20.09c0-2.66,1.25-3.68,4.13-3.68h7.07Z"/>
  </g>
</svg>