<svg width="18" height="18" viewBox="0 0 18 18" fill="none" xmlns="http://www.w3.org/2000/svg">
<g clip-path="url(#clip0_150_1858)">
<path d="M9.19654 0.534303C9.22423 0.699538 9.75385 3.85657 9.75385 5.06243C9.75385 6.9011 8.79154 8.21243 7.36885 8.73977L7.81538 17.1105C7.83961 17.5921 7.46231 17.9999 6.98462 17.9999H4.76923C4.295 17.9999 3.91423 17.5956 3.93846 17.1105L4.385 8.73977C2.95885 8.21243 2 6.89758 2 5.06243C2 3.85305 2.52962 0.699538 2.55731 0.534303C2.66808 -0.179369 4.12538 -0.189916 4.21538 0.572975V5.53704C4.26038 5.65657 4.73808 5.64954 4.76923 5.53704C4.81769 4.64758 5.04269 0.643288 5.04615 0.551881C5.16038 -0.179369 6.59346 -0.179369 6.70423 0.551881C6.71115 0.646803 6.93269 4.64758 6.98115 5.53704C7.01231 5.64954 7.49346 5.65657 7.535 5.53704V0.572975C7.625 -0.1864 9.08577 -0.179369 9.19654 0.534303ZM13.3227 10.5784L12.8035 17.0859C12.7619 17.5781 13.1462 17.9999 13.6308 17.9999H15.5692C16.0296 17.9999 16.4 17.6238 16.4 17.1562V0.843678C16.4 0.379616 16.0296 -7.18231e-05 15.5692 -7.18231e-05C12.7135 -7.18231e-05 7.90538 6.27532 13.3227 10.5784Z" fill="#FFBC0E"/>
</g>
<defs>
<clipPath id="clip0_150_1858">
<rect width="18" height="18" fill="white"/>
</clipPath>
</defs>
</svg>
